Involve-Regular.ufo
<glyph name="dollar" format="2">
	<unicode hex="0024"/>
	<advance width="554"/>
	<outline>
		<contour>
			<point x="245" y="-56" type="line"/>
			<point x="311" y="-56" type="line"/>
			<point x="311" y="29" type="line"/>
			<point x="409.958" y="38.996"/>
			<point x="479" y="119.955"/>
			<point x="479" y="226" type="curve" smooth="yes"/>
			<point x="479" y="328.944"/>
			<point x="426.634" y="386.747"/>
			<point x="296" y="428" type="curve" smooth="yes"/>
			<point x="200.912" y="458.028"/>
			<point x="174" y="484.057"/>
			<point x="174" y="546" type="curve" smooth="yes"/>
			<point x="174" y="618.832"/>
			<point x="217.84" y="665"/>
			<point x="287" y="665" type="curve" smooth="yes"/>
			<point x="355.873" y="665"/>
			<point x="398.993" y="621.137"/>
			<point x="403" y="547" type="curve"/>
			<point x="473" y="547" type="line"/>
			<point x="469" y="645.981"/>
			<point x="409.018" y="712.997"/>
			<point x="311" y="728" type="curve"/>
			<point x="311" y="810" type="line"/>
			<point x="245" y="810" type="line"/>
			<point x="245" y="728" type="line"/>
			<point x="155.519" y="709.903"/>
			<point x="100" y="642.514"/>
			<point x="100" y="552" type="curve" smooth="yes"/>
			<point x="100" y="454.427"/>
			<point x="149.802" y="399.059"/>
			<point x="270" y="363" type="curve" smooth="yes"/>
			<point x="367.83" y="333.651"/>
			<point x="405" y="295.38"/>
			<point x="405" y="224" type="curve" smooth="yes"/>
			<point x="405" y="145.742"/>
			<point x="351.754" y="90"/>
			<point x="277" y="90" type="curve" smooth="yes"/>
			<point x="198.076" y="90"/>
			<point x="149.005" y="140.916"/>
			<point x="144" y="228" type="curve"/>
			<point x="74" y="228" type="line"/>
			<point x="74" y="116.167"/>
			<point x="130.83" y="50.031"/>
			<point x="245" y="29" type="curve"/>
		</contour>
	</outline>
</glyph>
<glyph name="percent" format="2">
	<unicode hex="0025"/>
	<advance width="775"/>
	<outline>
		<contour>
			<point x="182" y="0" type="line"/>
			<point x="254" y="0" type="line"/>
			<point x="588" y="739" type="line"/>
			<point x="514" y="739" type="line"/>
		</contour>
		<contour>
			<point x="576" y="-13" type="curve" smooth="yes"/>
			<point x="673" y="-13"/>
			<point x="752" y="66"/>
			<point x="752" y="163" type="curve" smooth="yes"/>
			<point x="752" y="258.043"/>
			<point x="672.957" y="338"/>
			<point x="579" y="338" type="curve" smooth="yes"/>
			<point x="478.938" y="338"/>
			<point x="401" y="260.938"/>
			<point x="401" y="162" type="curve" smooth="yes"/>
			<point x="401" y="66"/>
			<point x="480" y="-13"/>
		</contour>
		<contour>
			<point x="576" y="53" type="curve" smooth="yes"/>
			<point x="516.555" y="53"/>
			<point x="468" y="102.454"/>
			<point x="468" y="163" type="curve" smooth="yes"/>
			<point x="468" y="222.551"/>
			<point x="516.541" y="272"/>
			<point x="575" y="272" type="curve" smooth="yes"/>
			<point x="636.218" y="272"/>
			<point x="684" y="223.78"/>
			<point x="684" y="162" type="curve" smooth="yes"/>
			<point x="684" y="101.722"/>
			<point x="635.725" y="53"/>
		</contour>
		<contour>
			<point x="188" y="397" type="curve" smooth="yes"/>
			<point x="285" y="397"/>
			<point x="364" y="476"/>
			<point x="364" y="573" type="curve" smooth="yes"/>
			<point x="364" y="668.815"/>
			<point x="285.182" y="749"/>
			<point x="191" y="749" type="curve" smooth="yes"/>
			<point x="91.443" y="749"/>
			<point x="13" y="671.438"/>
			<point x="13" y="573" type="curve" smooth="yes"/>
			<point x="13" y="476.226"/>
			<point x="91.776" y="397"/>
		</contour>
		<contour>
			<point x="188" y="463" type="curve" smooth="yes"/>
			<point x="127.777" y="463"/>
			<point x="79" y="512.225"/>
			<point x="79" y="573" type="curve" smooth="yes"/>
			<point x="79" y="632.813"/>
			<point x="127.818" y="683"/>
			<point x="186" y="683" type="curve" smooth="yes"/>
			<point x="248.216" y="683"/>
			<point x="296" y="634.782"/>
			<point x="296" y="572" type="curve" smooth="yes"/>
			<point x="296" y="512.227"/>
			<point x="247.225" y="463"/>
		</contour>
	</outline>
</glyph>
<glyph name="parenright" format="2">
	<unicode hex="0029"/>
	<advance width="369"/>
	<outline>
		<contour>
			<point x="34" y="-125" type="line"/>
			<point x="194.311" y="-69.72"/>
			<point x="312" y="112.317"/>
			<point x="312" y="305" type="curve" smooth="yes"/>
			<point x="312" y="497.564"/>
			<point x="194.179" y="681.5"/>
			<point x="34" y="739" type="curve"/>
			<point x="34" y="674" type="line"/>
			<point x="159.963" y="596.278"/>
			<point x="238" y="455.506"/>
			<point x="238" y="306" type="curve" smooth="yes"/>
			<point x="238" y="157.71"/>
			<point x="156.981" y="11.955"/>
			<point x="34" y="-61" type="curve"/>
		</contour>
	</outline>
</glyph>
<glyph name="comma" format="2">
	<unicode hex="002C"/>
	<advance width="235"/>
	<outline>
		<contour>
			<point x="91" y="0" type="line"/>
			<point x="120.789" y="0" type="line"/>
			<point x="120.789" y="-26.656" type="line" smooth="yes"/>
			<point x="120.789" y="-55.951"/>
			<point x="96.922" y="-81.92"/>
			<point x="70" y="-81.92" type="curve"/>
			<point x="70" y="-126" type="line"/>
			<point x="121.248" y="-126"/>
			<point x="165" y="-77.186"/>
			<point x="165" y="-20.009" type="curve" smooth="yes"/>
			<point x="165" y="126" type="line"/>
			<point x="91" y="126" type="line"/>
		</contour>
	</outline>
</glyph>
<glyph name="one" format="2">
	<unicode hex="0031"/>
	<advance width="554"/>
	<outline>
		<contour>
			<point x="281" y="0" type="line"/>
			<point x="354" y="0" type="line"/>
			<point x="354" y="739" type="line"/>
			<point x="155" y="739" type="line"/>
			<point x="155" y="672" type="line"/>
			<point x="281" y="672" type="line"/>
		</contour>
	</outline>
	<anchor name="Anchor-0" x="277" y="805"/>
</glyph>
<glyph name="two" format="2">
	<unicode hex="0032"/>
	<advance width="554"/>
	<outline>
		<contour>
			<point x="33" y="0" type="line"/>
			<point x="502" y="0" type="line"/>
			<point x="502" y="67" type="line"/>
			<point x="133" y="67" type="line"/>
			<point x="370" y="294" type="line" smooth="yes"/>
			<point x="474.136" y="393.742"/>
			<point x="506" y="448.332"/>
			<point x="506" y="527" type="curve" smooth="yes"/>
			<point x="506" y="657.682"/>
			<point x="408.329" y="752"/>
			<point x="273" y="752" type="curve" smooth="yes"/>
			<point x="128.972" y="752"/>
			<point x="39" y="655.108"/>
			<point x="39" y="500" type="curve"/>
			<point x="112" y="500" type="line"/>
			<point x="112" y="616.658"/>
			<point x="171.107" y="685"/>
			<point x="272" y="685" type="curve" smooth="yes"/>
			<point x="365.253" y="685"/>
			<point x="432" y="620.756"/>
			<point x="432" y="531" type="curve" smooth="yes"/>
			<point x="432" y="463.378"/>
			<point x="412.042" y="432.871"/>
			<point x="292" y="317" type="curve" smooth="yes"/>
			<point x="33" y="67" type="line"/>
		</contour>
	</outline>
	<anchor name="Anchor-0" x="277" y="805"/>
</glyph>
<glyph name="five" format="2">
	<unicode hex="0035"/>
	<advance width="554"/>
	<outline>
		<contour>
			<point x="26" y="232" type="line"/>
			<point x="47.834" y="79.159"/>
			<point x="143.379" y="-13"/>
			<point x="280" y="-13" type="curve" smooth="yes"/>
			<point x="419.4" y="-13"/>
			<point x="528" y="100.417"/>
			<point x="528" y="246" type="curve" smooth="yes"/>
			<point x="528" y="390.88"/>
			<point x="421.115" y="503"/>
			<point x="283" y="503" type="curve" smooth="yes"/>
			<point x="238.143" y="503"/>
			<point x="200.156" y="492.531"/>
			<point x="156" y="468" type="curve"/>
			<point x="192" y="672" type="line"/>
			<point x="466" y="672" type="line"/>
			<point x="466" y="739" type="line"/>
			<point x="133" y="739" type="line"/>
			<point x="67" y="375" type="line"/>
			<point x="124" y="353" type="line"/>
			<point x="168.912" y="408.89"/>
			<point x="218.886" y="436"/>
			<point x="277" y="436" type="curve" smooth="yes"/>
			<point x="377.805" y="436"/>
			<point x="454" y="354.209"/>
			<point x="454" y="246" type="curve" smooth="yes"/>
			<point x="454" y="137.763"/>
			<point x="376.781" y="54"/>
			<point x="277" y="54" type="curve" smooth="yes"/>
			<point x="183.202" y="54"/>
			<point x="111.028" y="125.771"/>
			<point x="98" y="232" type="curve"/>
		</contour>
	</outline>
	<anchor name="Anchor-0" x="277" y="805"/>
</glyph>
<glyph name="six" format="2">
	<unicode hex="0036"/>
	<advance width="554"/>
	<outline>
		<contour>
			<point x="296" y="739" type="line"/>
			<point x="113" y="467" type="line" smooth="yes"/>
			<point x="42.077" y="361.585"/>
			<point x="25" y="318.309"/>
			<point x="25" y="244" type="curve" smooth="yes"/>
			<point x="25" y="96.927"/>
			<point x="134.072" y="-13"/>
			<point x="280" y="-13" type="curve" smooth="yes"/>
			<point x="424.229" y="-13"/>
			<point x="529" y="97.241"/>
			<point x="529" y="249" type="curve" smooth="yes"/>
			<point x="529" y="391.034"/>
			<point x="424.969" y="503"/>
			<point x="293" y="503" type="curve" smooth="yes"/>
			<point x="261.238" y="503"/>
			<point x="239.227" y="497.625"/>
			<point x="207" y="482" type="curve"/>
			<point x="381" y="739" type="line"/>
		</contour>
		<contour>
			<point x="279" y="54" type="curve" smooth="yes"/>
			<point x="175.938" y="54"/>
			<point x="99" y="136.067"/>
			<point x="99" y="246" type="curve" smooth="yes"/>
			<point x="99" y="353.672"/>
			<point x="175.695" y="436"/>
			<point x="276" y="436" type="curve" smooth="yes"/>
			<point x="381.95" y="436"/>
			<point x="455" y="358.053"/>
			<point x="455" y="245" type="curve" smooth="yes"/>
			<point x="455" y="133.611"/>
			<point x="381.641" y="54"/>
		</contour>
	</outline>
	<anchor name="Anchor-0" x="277" y="805"/>
</glyph>
<glyph name="seven" format="2">
	<unicode hex="0037"/>
	<advance width="554"/>
	<outline>
		<contour>
			<point x="110" y="0" type="line"/>
			<point x="188" y="0" type="line"/>
			<point x="490" y="672" type="line"/>
			<point x="490" y="739" type="line"/>
			<point x="64" y="739" type="line"/>
			<point x="64" y="672" type="line"/>
			<point x="414" y="672" type="line"/>
		</contour>
	</outline>
	<anchor name="Anchor-0" x="277" y="805"/>
</glyph>
<glyph name="nine" format="2">
	<unicode hex="0039"/>
	<advance width="554"/>
	<outline>
		<contour>
			<point x="173" y="0" type="line"/>
			<point x="258" y="0" type="line"/>
			<point x="441" y="272" type="line" smooth="yes"/>
			<point x="511.923" y="377.415"/>
			<point x="529" y="420.691"/>
			<point x="529" y="495" type="curve" smooth="yes"/>
			<point x="529" y="642.073"/>
			<point x="419.928" y="752"/>
			<point x="274" y="752" type="curve" smooth="yes"/>
			<point x="129.771" y="752"/>
			<point x="25" y="641.759"/>
			<point x="25" y="490" type="curve" smooth="yes"/>
			<point x="25" y="347.966"/>
			<point x="129.031" y="236"/>
			<point x="261" y="236" type="curve" smooth="yes"/>
			<point x="292.762" y="236"/>
			<point x="314.773" y="241.375"/>
			<point x="347" y="257" type="curve"/>
		</contour>
		<contour>
			<point x="276" y="303" type="curve" smooth="yes"/>
			<point x="172.797" y="303"/>
			<point x="99" y="382.218"/>
			<point x="99" y="493" type="curve" smooth="yes"/>
			<point x="99" y="603.991"/>
			<point x="171.992" y="685"/>
			<point x="272" y="685" type="curve" smooth="yes"/>
			<point x="377.898" y="685"/>
			<point x="455" y="604.107"/>
			<point x="455" y="493" type="curve" smooth="yes"/>
			<point x="455" y="384.366"/>
			<point x="378.345" y="303"/>
		</contour>
	</outline>
	<anchor name="Anchor-0" x="277" y="805"/>
</glyph>
<glyph name="semicolon" format="2">
	<unicode hex="003B"/>
	<advance width="277"/>
	<outline>
		<contour>
			<point x="125" y="0" type="line"/>
			<point x="154.789" y="0" type="line"/>
			<point x="154.789" y="-26.656" type="line" smooth="yes"/>
			<point x="154.789" y="-55.951"/>
			<point x="130.922" y="-81.92"/>
			<point x="104" y="-81.92" type="curve"/>
			<point x="104" y="-126" type="line"/>
			<point x="155.248" y="-126"/>
			<point x="199" y="-77.186"/>
			<point x="199" y="-20.009" type="curve" smooth="yes"/>
			<point x="199" y="126" type="line"/>
			<point x="125" y="126" type="line"/>
		</contour>
		<contour>
			<point x="125" y="381" type="line"/>
			<point x="199" y="381" type="line"/>
			<point x="199" y="507" type="line"/>
			<point x="125" y="507" type="line"/>
		</contour>
	</outline>
</glyph>
<glyph name="question" format="2">
	<unicode hex="003F"/>
	<advance width="591"/>
	<outline>
		<contour>
			<point x="333" y="193" type="line"/>
			<point x="333.962" y="253.579"/>
			<point x="359.14" y="296.036"/>
			<point x="435" y="365" type="curve" smooth="yes"/>
			<point x="501.17" y="425.155"/>
			<point x="525" y="470.167"/>
			<point x="525" y="535" type="curve" smooth="yes"/>
			<point x="525" y="660.892"/>
			<point x="430.113" y="752"/>
			<point x="299" y="752" type="curve" smooth="yes"/>
			<point x="157.404" y="752"/>
			<point x="69.549" y="660.391"/>
			<point x="65" y="508" type="curve"/>
			<point x="135" y="508" type="line"/>
			<point x="145.068" y="626.296"/>
			<point x="199.461" y="685"/>
			<point x="299" y="685" type="curve" smooth="yes"/>
			<point x="387.162" y="685"/>
			<point x="451" y="622.842"/>
			<point x="451" y="537" type="curve" smooth="yes"/>
			<point x="451" y="486.662"/>
			<point x="433.341" y="457.231"/>
			<point x="367" y="397" type="curve" smooth="yes"/>
			<point x="291.018" y="328.017"/>
			<point x="264" y="275.02"/>
			<point x="263" y="193" type="curve"/>
		</contour>
		<contour>
			<point x="261" y="0" type="line"/>
			<point x="335" y="0" type="line"/>
			<point x="335" y="126" type="line"/>
			<point x="261" y="126" type="line"/>
		</contour>
	</outline>
</glyph>
<glyph name="at" format="2">
	<unicode hex="0040"/>
	<advance width="820"/>
	<outline>
		<contour>
			<point x="663" y="138" type="line"/>
			<point x="599.618" y="71.6"/>
			<point x="519.455" y="37"/>
			<point x="429" y="37" type="curve" smooth="yes"/>
			<point x="245.278" y="37"/>
			<point x="99" y="183.721"/>
			<point x="99" y="368" type="curve" smooth="yes"/>
			<point x="99" y="551.1"/>
			<point x="247.099" y="701"/>
			<point x="428" y="701" type="curve" smooth="yes"/>
			<point x="595.97" y="701"/>
			<point x="723" y="586.027"/>
			<point x="723" y="434" type="curve" smooth="yes"/>
			<point x="723" y="320.882"/>
			<point x="631.602" y="191"/>
			<point x="552" y="191" type="curve" smooth="yes"/>
			<point x="532.482" y="191"/>
			<point x="519" y="202.439"/>
			<point x="519" y="219" type="curve" smooth="yes"/>
			<point x="519" y="233.387"/>
			<point x="522.285" y="246.035"/>
			<point x="539" y="296" type="curve" smooth="yes"/>
			<point x="632" y="574" type="line"/>
			<point x="571" y="574" type="line"/>
			<point x="554" y="524" type="line"/>
			<point x="532.962" y="571.814"/>
			<point x="497.652" y="593"/>
			<point x="439" y="593" type="curve" smooth="yes"/>
			<point x="314.987" y="593"/>
			<point x="195" y="444.984"/>
			<point x="195" y="292" type="curve" smooth="yes"/>
			<point x="195" y="205.065"/>
			<point x="251.939" y="144"/>
			<point x="333" y="144" type="curve" smooth="yes"/>
			<point x="380.337" y="144"/>
			<point x="415.261" y="159.261"/>
			<point x="452" y="196" type="curve"/>
			<point x="468.323" y="154.174"/>
			<point x="495.701" y="135.825"/>
			<point x="541.791" y="135.825" type="curve" smooth="yes"/>
			<point x="661.796" y="135.825"/>
			<point x="778" y="282.452"/>
			<point x="778" y="433.875" type="curve" smooth="yes"/>
			<point x="778" y="615.937"/>
			<point x="625.149" y="757.269"/>
			<point x="428.248" y="757.269" type="curve" smooth="yes"/>
			<point x="213.948" y="757.269"/>
			<point x="42" y="583.515"/>
			<point x="42" y="366.966" type="curve" smooth="yes"/>
			<point x="42" y="151.539"/>
			<point x="211.807" y="-18.269"/>
			<point x="427.234" y="-18.269" type="curve" smooth="yes"/>
			<point x="537.1" y="-18.269"/>
			<point x="642.796" y="26.921"/>
			<point x="707.036" y="101.357" type="curve"/>
		</contour>
		<contour>
			<point x="347" y="202" type="curve" smooth="yes"/>
			<point x="299.087" y="202"/>
			<point x="267" y="238.9"/>
			<point x="267" y="294" type="curve" smooth="yes"/>
			<point x="267" y="415.038"/>
			<point x="354.027" y="539"/>
			<point x="439" y="539" type="curve" smooth="yes"/>
			<point x="486" y="539"/>
			<point x="516" y="509"/>
			<point x="516" y="462" type="curve" smooth="yes"/>
			<point x="516" y="345.701"/>
			<point x="422.594" y="202"/>
		</contour>
	</outline>
</glyph>
<glyph name="B" format="2">
	<unicode hex="0042"/>
	<advance width="574"/>
	<outline>
		<contour>
			<point x="76" y="0" type="line"/>
			<point x="259" y="0" type="line" smooth="yes"/>
			<point x="455.743" y="0"/>
			<point x="544" y="65.651"/>
			<point x="544" y="212" type="curve" smooth="yes"/>
			<point x="544" y="302.613"/>
			<point x="506.369" y="357.846"/>
			<point x="420" y="394" type="curve"/>
			<point x="476.481" y="425.709"/>
			<point x="502" y="473.323"/>
			<point x="502" y="547" type="curve" smooth="yes"/>
			<point x="502" y="676.735"/>
			<point x="419.953" y="739"/>
			<point x="249" y="739" type="curve" smooth="yes"/>
			<point x="76" y="739" type="line"/>
		</contour>
		<contour>
			<point x="150" y="67" type="line"/>
			<point x="150" y="354" type="line"/>
			<point x="288.5" y="354" type="line" smooth="yes"/>
			<point x="402.395" y="354"/>
			<point x="469" y="300.126"/>
			<point x="469" y="208" type="curve" smooth="yes"/>
			<point x="469" y="109.248"/>
			<point x="403.681" y="67"/>
			<point x="251" y="67" type="curve" smooth="yes"/>
		</contour>
		<contour>
			<point x="150" y="421" type="line"/>
			<point x="150" y="672" type="line"/>
			<point x="239" y="672" type="line" smooth="yes"/>
			<point x="376.257" y="672"/>
			<point x="427" y="637.991"/>
			<point x="427" y="546" type="curve" smooth="yes"/>
			<point x="427" y="460.106"/>
			<point x="384.297" y="421"/>
			<point x="290.5" y="421" type="curve" smooth="yes"/>
		</contour>
	</outline>
	<anchor name="Anchor-0" x="265" y="805"/>
</glyph>
<glyph name="G" format="2">
	<unicode hex="0047"/>
	<advance width="872"/>
	<outline>
		<contour>
			<point x="329" y="274" type="line"/>
			<point x="742" y="274" type="line"/>
			<point x="712.054" y="148.773"/>
			<point x="584.026" y="55"/>
			<point x="443" y="55" type="curve" smooth="yes"/>
			<point x="261.697" y="55"/>
			<point x="119" y="193.293"/>
			<point x="119" y="369" type="curve" smooth="yes"/>
			<point x="119" y="547.234"/>
			<point x="259.24" y="684"/>
			<point x="442" y="684" type="curve" smooth="yes"/>
			<point x="556.211" y="684"/>
			<point x="652.094" y="631.834"/>
			<point x="703" y="542" type="curve"/>
			<point x="786" y="542" type="line"/>
			<point x="737" y="668"/>
			<point x="597" y="752"/>
			<point x="436" y="752" type="curve" smooth="yes"/>
			<point x="215.911" y="752"/>
			<point x="44" y="584.913"/>
			<point x="44" y="371" type="curve" smooth="yes"/>
			<point x="44" y="154.082"/>
			<point x="218.914" y="-13"/>
			<point x="446" y="-13" type="curve" smooth="yes"/>
			<point x="652.187" y="-13"/>
			<point x="819.355" y="140.708"/>
			<point x="831" y="341" type="curve"/>
			<point x="329" y="341" type="line"/>
		</contour>
	</outline>
	<anchor name="Anchor-0" x="438" y="805"/>
</glyph>
<glyph name="J" format="2">
	<unicode hex="004A"/>
	<advance width="482"/>
	<outline>
		<contour>
			<point x="11" y="175" type="line"/>
			<point x="17.01" y="56.809"/>
			<point x="91.19" y="-14"/>
			<point x="209" y="-14" type="curve" smooth="yes"/>
			<point x="336.924" y="-14"/>
			<point x="406" y="71.906"/>
			<point x="406" y="231" type="curve" smooth="yes"/>
			<point x="406" y="739" type="line"/>
			<point x="332" y="739" type="line"/>
			<point x="332" y="231" type="line" smooth="yes"/>
			<point x="332" y="114.467"/>
			<point x="290.322" y="54"/>
			<point x="210" y="54" type="curve" smooth="yes"/>
			<point x="136.95" y="54"/>
			<point x="88.997" y="100.051"/>
			<point x="84" y="175" type="curve"/>
		</contour>
	</outline>
	<anchor name="Anchor-0" x="369" y="805"/>
</glyph>
<glyph name="O" format="2">
	<unicode hex="004F"/>
	<advance width="869"/>
	<outline>
		<contour>
			<point x="44" y="369" type="curve" smooth="yes"/>
			<point x="44" y="159.963"/>
			<point x="221.038" y="-13"/>
			<point x="435" y="-13" type="curve" smooth="yes"/>
			<point x="649.199" y="-13"/>
			<point x="825" y="159.195"/>
			<point x="825" y="369" type="curve" smooth="yes"/>
			<point x="825" y="577.457"/>
			<point x="649.546" y="752"/>
			<point x="440" y="752" type="curve" smooth="yes"/>
			<point x="219.885" y="752"/>
			<point x="44" y="581.889"/>
		</contour>
		<contour>
			<point x="119" y="369" type="curve" smooth="yes"/>
			<point x="119" y="539.313"/>
			<point x="262.31" y="684"/>
			<point x="431" y="684" type="curve" smooth="yes"/>
			<point x="607.831" y="684"/>
			<point x="750" y="543.168"/>
			<point x="750" y="368" type="curve" smooth="yes"/>
			<point x="750" y="197.046"/>
			<point x="607.046" y="55"/>
			<point x="435" y="55" type="curve" smooth="yes"/>
			<point x="261.952" y="55"/>
			<point x="119" y="197.047"/>
		</contour>
	</outline>
	<anchor name="Anchor-0" x="434" y="805"/>
</glyph>
<glyph name="P" format="2">
	<unicode hex="0050"/>
	<advance width="592"/>
	<outline>
		<contour>
			<point x="76" y="0" type="line"/>
			<point x="150" y="0" type="line"/>
			<point x="150" y="299" type="line"/>
			<point x="292" y="299" type="line" smooth="yes"/>
			<point x="390.568" y="299"/>
			<point x="445.249" y="311.64"/>
			<point x="491" y="345" type="curve" smooth="yes"/>
			<point x="538.595" y="379.705"/>
			<point x="565" y="440.365"/>
			<point x="565" y="515" type="curve" smooth="yes"/>
			<point x="565" y="598.962"/>
			<point x="533.216" y="665.782"/>
			<point x="477" y="700" type="curve" smooth="yes"/>
			<point x="431.105" y="727.936"/>
			<point x="375.218" y="739"/>
			<point x="280" y="739" type="curve" smooth="yes"/>
			<point x="76" y="739" type="line"/>
		</contour>
		<contour>
			<point x="150" y="366" type="line"/>
			<point x="150" y="672" type="line"/>
			<point x="255" y="672" type="line" smooth="yes"/>
			<point x="325.385" y="672"/>
			<point x="372.619" y="667.028"/>
			<point x="407" y="656" type="curve" smooth="yes"/>
			<point x="459.854" y="639.047"/>
			<point x="490" y="588.199"/>
			<point x="490" y="516" type="curve" smooth="yes"/>
			<point x="490" y="457.541"/>
			<point x="467.696" y="411.836"/>
			<point x="429" y="391" type="curve"/>
			<point x="398.705" y="373.409"/>
			<point x="356.62" y="366"/>
			<point x="287" y="366" type="curve" smooth="yes"/>
		</contour>
	</outline>
	<anchor name="Anchor-0" x="290" y="805"/>
</glyph>
<glyph name="U" format="2">
	<unicode hex="0055"/>
	<advance width="655"/>
	<outline>
		<contour>
			<point x="76" y="739" type="line"/>
			<point x="76" y="278" type="line" smooth="yes"/>
			<point x="76" y="91.197"/>
			<point x="165.875" y="-13"/>
			<point x="327" y="-13" type="curve" smooth="yes"/>
			<point x="489.121" y="-13"/>
			<point x="579" y="90.789"/>
			<point x="579" y="278" type="curve" smooth="yes"/>
			<point x="579" y="739" type="line"/>
			<point x="505" y="739" type="line"/>
			<point x="505" y="278" type="line" smooth="yes"/>
			<point x="505" y="131.677"/>
			<point x="443.796" y="55"/>
			<point x="327" y="55" type="curve" smooth="yes"/>
			<point x="211.214" y="55"/>
			<point x="150" y="132.122"/>
			<point x="150" y="278" type="curve" smooth="yes"/>
			<point x="150" y="739" type="line"/>
		</contour>
	</outline>
	<anchor name="Anchor-0" x="327" y="805"/>
</glyph>
<glyph name="bracketleft" format="2">
	<unicode hex="005B"/>
	<advance width="351"/>
	<outline>
		<contour>
			<point x="313" y="-50" type="line"/>
			<point x="213.825" y="-5.922"/>
			<point x="182" y="49.225"/>
			<point x="182" y="177" type="curve" smooth="yes"/>
			<point x="182" y="448" type="line" smooth="yes"/>
			<point x="182" y="566.294"/>
			<point x="215.243" y="621.107"/>
			<point x="313" y="664" type="curve"/>
			<point x="313" y="739" type="line"/>
			<point x="188.557" y="707.279"/>
			<point x="112" y="601.776"/>
			<point x="112" y="462" type="curve" smooth="yes"/>
			<point x="112" y="164" type="line" smooth="yes"/>
			<point x="112" y="11.894"/>
			<point x="181.546" y="-88.101"/>
			<point x="313" y="-125" type="curve"/>
		</contour>
	</outline>
</glyph>
<glyph name="bracketright" format="2">
	<unicode hex="005D"/>
	<advance width="351"/>
	<outline>
		<contour>
			<point x="38" y="-125" type="line"/>
			<point x="165.149" y="-90.096"/>
			<point x="239" y="12.046"/>
			<point x="239" y="153" type="curve" smooth="yes"/>
			<point x="239" y="450" type="line" smooth="yes"/>
			<point x="239" y="603.43"/>
			<point x="170.598" y="701.78"/>
			<point x="38" y="739" type="curve"/>
			<point x="38" y="664" type="line"/>
			<point x="137.08" y="619.964"/>
			<point x="169" y="564.897"/>
			<point x="169" y="438" type="curve" smooth="yes"/>
			<point x="169" y="166" type="line" smooth="yes"/>
			<point x="169" y="48.206"/>
			<point x="136.172" y="-5.923"/>
			<point x="38" y="-50" type="curve"/>
		</contour>
	</outline>
</glyph>
<glyph name="grave" format="2">
	<unicode hex="0060"/>
	<advance width="378"/>
	<outline>
		<contour>
			<point x="74" y="718" type="line"/>
			<point x="271" y="610" type="line"/>
			<point x="304" y="666" type="line"/>
			<point x="106" y="776" type="line"/>
		</contour>
	</outline>
</glyph>
<glyph name="b" format="2">
	<unicode hex="0062"/>
	<advance width="682"/>
	<outline>
		<contour>
			<point x="63" y="0" type="line"/>
			<point x="137" y="0" type="line"/>
			<point x="137" y="94" type="line"/>
			<point x="183" y="26"/>
			<point x="261" y="-13"/>
			<point x="351" y="-13" type="curve" smooth="yes"/>
			<point x="516.071" y="-13"/>
			<point x="640" y="110.071"/>
			<point x="640" y="274" type="curve" smooth="yes"/>
			<point x="640" y="434.938"/>
			<point x="514.063" y="560"/>
			<point x="352" y="560" type="curve" smooth="yes"/>
			<point x="260.178" y="560"/>
			<point x="184.091" y="522.134"/>
			<point x="137" y="453" type="curve"/>
			<point x="137" y="739" type="line"/>
			<point x="63" y="739" type="line"/>
		</contour>
		<contour>
			<point x="349" y="55" type="curve" smooth="yes"/>
			<point x="228.278" y="55"/>
			<point x="132" y="151.721"/>
			<point x="132" y="273" type="curve" smooth="yes"/>
			<point x="132" y="396.126"/>
			<point x="226.123" y="492"/>
			<point x="347" y="492" type="curve" smooth="yes"/>
			<point x="473.29" y="492"/>
			<point x="565" y="400.711"/>
			<point x="565" y="275" type="curve" smooth="yes"/>
			<point x="565" y="149.361"/>
			<point x="472.355" y="55"/>
		</contour>
	</outline>
	<anchor name="Anchor-0" x="331" y="805"/>
</glyph>
<glyph name="f" format="2">
	<unicode hex="0066"/>
	<advance width="314"/>
	<outline>
		<contour>
			<point x="101" y="0" type="line"/>
			<point x="175" y="0" type="line"/>
			<point x="175" y="480" type="line"/>
			<point x="311" y="480" type="line"/>
			<point x="311" y="547" type="line"/>
			<point x="175" y="547" type="line"/>
			<point x="175" y="638.148"/>
			<point x="209.002" y="671.941"/>
			<point x="300.711" y="671.941" type="curve" smooth="yes"/>
			<point x="311" y="671.941" type="line"/>
			<point x="311" y="739" type="line"/>
			<point x="300.549" y="739.936"/>
			<point x="290.44" y="740.392"/>
			<point x="280.682" y="740.368" type="curve" smooth="yes"/>
			<point x="164.719" y="740.082"/>
			<point x="101" y="671.509"/>
			<point x="101" y="547" type="curve"/>
			<point x="16" y="547" type="line"/>
			<point x="16" y="480" type="line"/>
			<point x="101" y="480" type="line"/>
		</contour>
	</outline>
	<anchor name="Anchor-0" x="182" y="805"/>
</glyph>
<glyph name="g" format="2">
	<unicode hex="0067"/>
	<advance width="673"/>
	<outline>
		<contour>
			<point x="62" y="-17" type="line"/>
			<point x="102.032" y="-145.103"/>
			<point x="199.111" y="-215"/>
			<point x="337" y="-215" type="curve" smooth="yes"/>
			<point x="520.312" y="-215"/>
			<point x="610" y="-112.171"/>
			<point x="610" y="98" type="curve" smooth="yes"/>
			<point x="610" y="547" type="line"/>
			<point x="536" y="547" type="line"/>
			<point x="536" y="450" type="line"/>
			<point x="481.16" y="525.778"/>
			<point x="414.273" y="560"/>
			<point x="321" y="560" type="curve" smooth="yes"/>
			<point x="160.872" y="560"/>
			<point x="42" y="436.867"/>
			<point x="42" y="271" type="curve" smooth="yes"/>
			<point x="42" y="110.782"/>
			<point x="166.218" y="-13"/>
			<point x="327" y="-13" type="curve" smooth="yes"/>
			<point x="425.79" y="-13"/>
			<point x="492.909" y="26.821"/>
			<point x="536" y="111" type="curve"/>
			<point x="536" y="74" type="line" smooth="yes"/>
			<point x="536" y="-71.113"/>
			<point x="466.98" y="-147"/>
			<point x="335" y="-147" type="curve" smooth="yes"/>
			<point x="241.692" y="-147"/>
			<point x="186.711" y="-111.44"/>
			<point x="134" y="-17" type="curve"/>
		</contour>
		<contour>
			<point x="327" y="55" type="curve" smooth="yes"/>
			<point x="206.932" y="55"/>
			<point x="117" y="150.071"/>
			<point x="117" y="277" type="curve" smooth="yes"/>
			<point x="117" y="398.899"/>
			<point x="204.905" y="492"/>
			<point x="320" y="492" type="curve" smooth="yes"/>
			<point x="444.366" y="492"/>
			<point x="536" y="401.639"/>
			<point x="536" y="279" type="curve" smooth="yes"/>
			<point x="536" y="151.73"/>
			<point x="445.748" y="55"/>
		</contour>
	</outline>
	<anchor name="Anchor-0" x="331" y="623"/>
</glyph>
<glyph name="j" format="2">
	<unicode hex="006A"/>
	<advance width="203"/>
	<outline>
		<contour>
			<point x="-45" y="-192" type="line"/>
			<point x="1.499" y="-189.978"/>
			<point x="33.546" y="-180.073"/>
			<point x="65" y="-158" type="curve" smooth="yes"/>
			<point x="122.272" y="-117.809"/>
			<point x="140" y="-71.48"/>
			<point x="140" y="38" type="curve" smooth="yes"/>
			<point x="140" y="547" type="line"/>
			<point x="66" y="547" type="line"/>
			<point x="66" y="38" type="line" smooth="yes"/>
			<point x="66" y="-75.946"/>
			<point x="38.039" y="-115.998"/>
			<point x="-45" y="-121" type="curve"/>
		</contour>
		<contour>
			<point x="66" y="613" type="line"/>
			<point x="140" y="613" type="line"/>
			<point x="140" y="739" type="line"/>
			<point x="66" y="739" type="line"/>
		</contour>
	</outline>
	<anchor name="Anchor-0" x="103" y="805"/>
</glyph>
<glyph name="n" format="2">
	<unicode hex="006E"/>
	<advance width="610"/>
	<outline>
		<contour>
			<point x="63" y="0" type="line"/>
			<point x="137" y="0" type="line"/>
			<point x="137" y="301" type="line" smooth="yes"/>
			<point x="137" y="425.912"/>
			<point x="194.784" y="492"/>
			<point x="304" y="492" type="curve" smooth="yes"/>
			<point x="415.125" y="492"/>
			<point x="473" y="421.797"/>
			<point x="473" y="287" type="curve" smooth="yes"/>
			<point x="473" y="0" type="line"/>
			<point x="547" y="0" type="line"/>
			<point x="547" y="287" type="line" smooth="yes"/>
			<point x="547" y="463.418"/>
			<point x="464.216" y="560"/>
			<point x="313" y="560" type="curve" smooth="yes"/>
			<point x="240.286" y="560"/>
			<point x="182.553" y="532.446"/>
			<point x="137" y="476" type="curve"/>
			<point x="137" y="547" type="line"/>
			<point x="63" y="547" type="line"/>
		</contour>
	</outline>
	<anchor name="Anchor-0" x="305" y="623"/>
</glyph>
<glyph name="r" format="2">
	<unicode hex="0072"/>
	<advance width="301"/>
	<outline>
		<contour>
			<point x="63" y="0" type="line"/>
			<point x="137" y="0" type="line"/>
			<point x="137" y="319" type="line" smooth="yes"/>
			<point x="137" y="420.819"/>
			<point x="188.817" y="476.982"/>
			<point x="292" y="487" type="curve"/>
			<point x="292" y="560" type="line"/>
			<point x="212.447" y="555.972"/>
			<point x="165.8" y="528.586"/>
			<point x="137" y="469" type="curve"/>
			<point x="137" y="547" type="line"/>
			<point x="63" y="547" type="line"/>
		</contour>
	</outline>
	<anchor name="Anchor-0" x="174" y="623"/>
</glyph>
<glyph name="t" format="2">
	<unicode hex="0074"/>
	<advance width="339"/>
	<outline>
		<contour>
			<point x="130" y="0" type="line"/>
			<point x="204" y="0" type="line"/>
			<point x="204" y="480" type="line"/>
			<point x="327" y="480" type="line"/>
			<point x="327" y="547" type="line"/>
			<point x="204" y="547" type="line"/>
			<point x="204" y="739" type="line"/>
			<point x="130" y="739" type="line"/>
			<point x="130" y="547" type="line"/>
			<point x="12" y="547" type="line"/>
			<point x="12" y="480" type="line"/>
			<point x="130" y="480" type="line"/>
		</contour>
	</outline>
	<anchor name="Anchor-0" x="170" y="805"/>
</glyph>
<glyph name="u" format="2">
	<unicode hex="0075"/>
	<advance width="608"/>
	<outline>
		<contour>
			<point x="471" y="0" type="line"/>
			<point x="545" y="0" type="line"/>
			<point x="545" y="547" type="line"/>
			<point x="471" y="547" type="line"/>
			<point x="471" y="266" type="line" smooth="yes"/>
			<point x="471" y="129.36"/>
			<point x="410.737" y="55"/>
			<point x="300" y="55" type="curve" smooth="yes"/>
			<point x="191.087" y="55"/>
			<point x="137" y="120.369"/>
			<point x="137" y="252" type="curve" smooth="yes"/>
			<point x="137" y="547" type="line"/>
			<point x="63" y="547" type="line"/>
			<point x="63" y="252" type="line" smooth="yes"/>
			<point x="63" y="78.272"/>
			<point x="142.906" y="-13"/>
			<point x="295" y="-13" type="curve" smooth="yes"/>
			<point x="380.061" y="-13"/>
			<point x="434.027" y="17.049"/>
			<point x="471" y="85" type="curve"/>
		</contour>
	</outline>
	<anchor name="Anchor-0" x="304" y="623"/>
</glyph>
<glyph name="braceleft" format="2">
	<unicode hex="007B"/>
	<advance width="351"/>
	<outline>
		<contour>
			<point x="292" y="-59" type="line"/>
			<point x="230.862" y="-59"/>
			<point x="214" y="-43.651"/>
			<point x="214" y="12" type="curve" smooth="yes"/>
			<point x="214" y="182" type="line" smooth="yes"/>
			<point x="214" y="254.207"/>
			<point x="197.824" y="279.922"/>
			<point x="136" y="306" type="curve"/>
			<point x="203.109" y="335.005"/>
			<point x="214" y="352.458"/>
			<point x="214" y="431" type="curve" smooth="yes"/>
			<point x="214" y="601" type="line" smooth="yes"/>
			<point x="214" y="652.602"/>
			<point x="235.31" y="672"/>
			<point x="292" y="672" type="curve"/>
			<point x="292" y="739" type="line"/>
			<point x="175.305" y="739"/>
			<point x="137" y="704.649"/>
			<point x="137" y="600" type="curve" smooth="yes"/>
			<point x="137" y="430" type="line" smooth="yes"/>
			<point x="137" y="367.886"/>
			<point x="122.881" y="351.98"/>
			<point x="58" y="341" type="curve"/>
			<point x="58" y="272" type="line"/>
			<point x="123.41" y="259.924"/>
			<point x="137" y="244.614"/>
			<point x="137" y="183" type="curve" smooth="yes"/>
			<point x="137" y="13" type="line" smooth="yes"/>
			<point x="137" y="-92.418"/>
			<point x="174.447" y="-126"/>
			<point x="292" y="-126" type="curve"/>
		</contour>
	</outline>
</glyph>
<glyph name="sterling" format="2">
	<unicode hex="00A3"/>
	<advance width="625"/>
	<outline>
		<contour>
			<point x="59" y="0" type="line"/>
			<point x="344" y="0" type="line" smooth="yes"/>
			<point x="499.919" y="0"/>
			<point x="592" y="79.086"/>
			<point x="592" y="213" type="curve" smooth="yes"/>
			<point x="592" y="232.125"/>
			<point x="590.288" y="243.897"/>
			<point x="584" y="268" type="curve"/>
			<point x="512" y="268" type="line"/>
			<point x="516.431" y="246.733"/>
			<point x="518" y="233.917"/>
			<point x="518" y="219" type="curve" smooth="yes"/>
			<point x="518" y="121.412"/>
			<point x="454.997" y="67"/>
			<point x="342" y="67" type="curve" smooth="yes"/>
			<point x="285" y="67" type="line"/>
			<point x="306.513" y="114.916"/>
			<point x="314" y="145.121"/>
			<point x="314" y="184" type="curve" smooth="yes"/>
			<point x="314" y="240.833"/>
			<point x="290.141" y="294.847"/>
			<point x="242" y="347" type="curve"/>
			<point x="457" y="347" type="line"/>
			<point x="457" y="414" type="line"/>
			<point x="173" y="414" type="line"/>
			<point x="150.386" y="455.294"/>
			<point x="145" y="474.339"/>
			<point x="145" y="513" type="curve" smooth="yes"/>
			<point x="145" y="614.963"/>
			<point x="210.965" y="685"/>
			<point x="307" y="685" type="curve" smooth="yes"/>
			<point x="399.243" y="685"/>
			<point x="465.053" y="631.761"/>
			<point x="485" y="541" type="curve"/>
			<point x="554" y="541" type="line"/>
			<point x="540.005" y="666.955"/>
			<point x="440.047" y="752"/>
			<point x="306" y="752" type="curve" smooth="yes"/>
			<point x="168.958" y="752"/>
			<point x="71" y="651.957"/>
			<point x="71" y="512" type="curve" smooth="yes"/>
			<point x="71" y="477.636"/>
			<point x="76.178" y="454.571"/>
			<point x="93" y="414" type="curve"/>
			<point x="18" y="414" type="line"/>
			<point x="18" y="347" type="line"/>
			<point x="144" y="347" type="line"/>
			<point x="220.672" y="279.29"/>
			<point x="240" y="246.271"/>
			<point x="240" y="183" type="curve" smooth="yes"/>
			<point x="240" y="136.333"/>
			<point x="226.201" y="98.223"/>
			<point x="198" y="67" type="curve"/>
			<point x="59" y="67" type="line"/>
		</contour>
	</outline>
</glyph>
<glyph name="section" format="2">
	<unicode hex="00A7"/>
	<advance width="615"/>
	<outline>
		<contour>
			<point x="106" y="64" type="line"/>
			<point x="109.997" y="-55.913"/>
			<point x="195.915" y="-141"/>
			<point x="313" y="-141" type="curve" smooth="yes"/>
			<point x="420.865" y="-141"/>
			<point x="501" y="-65.128"/>
			<point x="501" y="37" type="curve" smooth="yes"/>
			<point x="501" y="78.604"/>
			<point x="486.513" y="111.501"/>
			<point x="453" y="146" type="curve"/>
			<point x="501.912" y="182.934"/>
			<point x="529" y="233.901"/>
			<point x="529" y="289" type="curve" smooth="yes"/>
			<point x="529" y="350.091"/>
			<point x="493.215" y="396.709"/>
			<point x="420" y="431" type="curve" smooth="yes"/>
			<point x="262" y="505" type="line" smooth="yes"/>
			<point x="224.055" y="522.772"/>
			<point x="203" y="553.462"/>
			<point x="203" y="591" type="curve" smooth="yes"/>
			<point x="203" y="646.067"/>
			<point x="246.074" y="685"/>
			<point x="307" y="685" type="curve" smooth="yes"/>
			<point x="366.222" y="685"/>
			<point x="401.041" y="658.802"/>
			<point x="412" y="606" type="curve"/>
			<point x="483" y="606" type="line"/>
			<point x="475.988" y="692.146"/>
			<point x="403.836" y="752"/>
			<point x="307" y="752" type="curve" smooth="yes"/>
			<point x="207.905" y="752"/>
			<point x="135" y="682.91"/>
			<point x="135" y="589" type="curve" smooth="yes"/>
			<point x="135" y="548.684"/>
			<point x="145.534" y="521.518"/>
			<point x="173" y="491" type="curve"/>
			<point x="114.77" y="449.837"/>
			<point x="87" y="400.756"/>
			<point x="87" y="339" type="curve" smooth="yes"/>
			<point x="87" y="279.792"/>
			<point x="113.937" y="247.171"/>
			<point x="196" y="207" type="curve" smooth="yes"/>
			<point x="339" y="137" type="line" smooth="yes"/>
			<point x="406.121" y="104.144"/>
			<point x="433" y="74.977"/>
			<point x="433" y="35" type="curve" smooth="yes"/>
			<point x="433" y="-26.883"/>
			<point x="381.128" y="-74"/>
			<point x="313" y="-74" type="curve" smooth="yes"/>
			<point x="235.199" y="-74"/>
			<point x="180.015" y="-19.213"/>
			<point x="174" y="64" type="curve"/>
		</contour>
		<contour>
			<point x="407" y="182" type="curve"/>
			<point x="209" y="278" type="line" smooth="yes"/>
			<point x="172.22" y="295.832"/>
			<point x="155" y="318.793"/>
			<point x="155" y="350" type="curve" smooth="yes"/>
			<point x="155" y="389.93"/>
			<point x="176.938" y="429.958"/>
			<point x="212" y="454" type="curve"/>
			<point x="400" y="365" type="line" smooth="yes"/>
			<point x="440.534" y="345.811"/>
			<point x="461" y="317.293"/>
			<point x="461" y="280" type="curve" smooth="yes"/>
			<point x="461" y="244.056"/>
			<point x="440.051" y="206.037"/>
		</contour>
	</outline>
</glyph>
<glyph name="copyright" format="2">
	<unicode hex="00A9"/>
	<advance width="747"/>
	<outline>
		<contour>
			<point x="163" y="372" type="curve" smooth="yes"/>
			<point x="163" y="249.13"/>
			<point x="261.873" y="148"/>
			<point x="382" y="148" type="curve" smooth="yes"/>
			<point x="463.947" y="148"/>
			<point x="535.974" y="189.954"/>
			<point x="576" y="261" type="curve"/>
			<point x="501" y="261" type="line"/>
			<point x="469.229" y="223.271"/>
			<point x="429.333" y="204"/>
			<point x="383" y="204" type="curve" smooth="yes"/>
			<point x="296.938" y="204"/>
			<point x="224" y="281.066"/>
			<point x="224" y="372" type="curve" smooth="yes"/>
			<point x="224" y="463.65"/>
			<point x="295.663" y="538"/>
			<point x="384" y="538" type="curve" smooth="yes"/>
			<point x="431.664" y="538"/>
			<point x="470.759" y="518.291"/>
			<point x="505" y="477" type="curve"/>
			<point x="579" y="477" type="line"/>
			<point x="536.91" y="552.161"/>
			<point x="466.821" y="594"/>
			<point x="383" y="594" type="curve" smooth="yes"/>
			<point x="260.559" y="594"/>
			<point x="163" y="495.555"/>
		</contour>
		<contour>
			<point x="-9" y="369" type="curve" smooth="yes"/>
			<point x="-9" y="158"/>
			<point x="162" y="-13"/>
			<point x="373" y="-13" type="curve" smooth="yes"/>
			<point x="584" y="-13"/>
			<point x="755" y="158"/>
			<point x="755" y="369" type="curve" smooth="yes"/>
			<point x="755" y="578.639"/>
			<point x="584.355" y="752"/>
			<point x="378" y="752" type="curve" smooth="yes"/>
			<point x="161.383" y="752"/>
			<point x="-9" y="583.379"/>
		</contour>
		<contour>
			<point x="47" y="369" type="curve" smooth="yes"/>
			<point x="47" y="549.96"/>
			<point x="192.961" y="700"/>
			<point x="369" y="700" type="curve" smooth="yes"/>
			<point x="553.721" y="700"/>
			<point x="699" y="554.28"/>
			<point x="699" y="369" type="curve" smooth="yes"/>
			<point x="699" y="186.896"/>
			<point x="552.897" y="39"/>
			<point x="373" y="39" type="curve" smooth="yes"/>
			<point x="193.103" y="39"/>
			<point x="47" y="186.896"/>
		</contour>
	</outline>
</glyph>
<glyph name="ordfeminine" format="2">
	<unicode hex="00AA"/>
	<advance width="369"/>
	<outline>
		<contour>
			<point x="285" y="448" type="line"/>
			<point x="333" y="448" type="line"/>
			<point x="333" y="739" type="line"/>
			<point x="285" y="739" type="line"/>
			<point x="285" y="694" type="line"/>
			<point x="266" y="724"/>
			<point x="224" y="745"/>
			<point x="183" y="745" type="curve" smooth="yes"/>
			<point x="99.225" y="745"/>
			<point x="31" y="677.224"/>
			<point x="31" y="594" type="curve" smooth="yes"/>
			<point x="31" y="510.957"/>
			<point x="100.042" y="441"/>
			<point x="182" y="441" type="curve" smooth="yes"/>
			<point x="225.144" y="441"/>
			<point x="255.1" y="456.123"/>
			<point x="285" y="493" type="curve"/>
		</contour>
		<contour>
			<point x="184" y="490" type="curve" smooth="yes"/>
			<point x="131.058" y="490"/>
			<point x="84" y="538.94"/>
			<point x="84" y="594" type="curve" smooth="yes"/>
			<point x="84" y="647.288"/>
			<point x="131.279" y="696"/>
			<point x="183" y="696" type="curve" smooth="yes"/>
			<point x="237.13" y="696"/>
			<point x="282" y="648.864"/>
			<point x="282" y="592" type="curve" smooth="yes"/>
			<point x="282" y="537.939"/>
			<point x="235.941" y="490"/>
		</contour>
		<contour>
			<point x="31" y="319" type="line"/>
			<point x="339" y="319" type="line"/>
			<point x="339" y="370" type="line"/>
			<point x="31" y="370" type="line"/>
		</contour>
	</outline>
</glyph>
<glyph name="twosuperior" format="2">
	<unicode hex="00B2"/>
	<advance width="332"/>
	<outline>
		<contour>
			<point x="12" y="288" type="line"/>
			<point x="318" y="288" type="line"/>
			<point x="318" y="343" type="line"/>
			<point x="101" y="343" type="line"/>
			<point x="234" y="464" type="line" smooth="yes"/>
			<point x="297.413" y="521.692"/>
			<point x="320" y="558.986"/>
			<point x="320" y="606" type="curve" smooth="yes"/>
			<point x="320" y="684.272"/>
			<point x="253.713" y="747"/>
			<point x="171" y="747" type="curve" smooth="yes"/>
			<point x="74.493" y="747"/>
			<point x="16" y="685.11"/>
			<point x="16" y="583" type="curve"/>
			<point x="76" y="583" type="line"/>
			<point x="76" y="652.951"/>
			<point x="108.959" y="692"/>
			<point x="168" y="692" type="curve" smooth="yes"/>
			<point x="217.917" y="692"/>
			<point x="259" y="654.077"/>
			<point x="259" y="608" type="curve" smooth="yes"/>
			<point x="259" y="573.507"/>
			<point x="244.484" y="552.942"/>
			<point x="175" y="489" type="curve" smooth="yes"/>
			<point x="12" y="339" type="line"/>
		</contour>
	</outline>
</glyph>
<glyph name="mu" format="2">
	<unicode hex="00B5"/>
	<advance width="608"/>
	<outline>
		<contour>
			<point x="63" y="-192" type="line"/>
			<point x="137" y="-192" type="line"/>
			<point x="137" y="85" type="line"/>
			<point x="175.19" y="21.684"/>
			<point x="235.357" y="-13"/>
			<point x="307" y="-13" type="curve" smooth="yes"/>
			<point x="384.561" y="-13"/>
			<point x="437.244" y="18.481"/>
			<point x="471" y="85" type="curve"/>
			<point x="471" y="0" type="line"/>
			<point x="545" y="0" type="line"/>
			<point x="545" y="547" type="line"/>
			<point x="471" y="547" type="line"/>
			<point x="471" y="266" type="line" smooth="yes"/>
			<point x="471" y="197.067"/>
			<point x="462.022" y="155.654"/>
			<point x="440" y="123" type="curve" smooth="yes"/>
			<point x="410.869" y="79.806"/>
			<point x="360.754" y="54"/>
			<point x="306" y="54" type="curve" smooth="yes"/>
			<point x="264.736" y="54"/>
			<point x="221.943" y="71.338"/>
			<point x="190" y="101" type="curve" smooth="yes"/>
			<point x="147.715" y="140.265"/>
			<point x="137" y="173.623"/>
			<point x="137" y="266" type="curve" smooth="yes"/>
			<point x="137" y="547" type="line"/>
			<point x="63" y="547" type="line"/>
		</contour>
	</outline>
</glyph>
<glyph name="paragraph" format="2">
	<unicode hex="00B6"/>
	<advance width="564"/>
	<outline>
		<contour>
			<point x="227" y="-133" type="line"/>
			<point x="302" y="-133" type="line"/>
			<point x="302" y="672" type="line"/>
			<point x="416" y="672" type="line"/>
			<point x="416" y="-133" type="line"/>
			<point x="491" y="-133" type="line"/>
			<point x="491" y="739" type="line"/>
			<point x="260" y="739" type="line" smooth="yes"/>
			<point x="197.387" y="739"/>
			<point x="156.67" y="729.787"/>
			<point x="123" y="708" type="curve"/>
			<point x="68.675" y="675.405"/>
			<point x="37" y="616.843"/>
			<point x="37" y="549" type="curve" smooth="yes"/>
			<point x="37" y="440.758"/>
			<point x="109.263" y="366.973"/>
			<point x="227" y="355" type="curve"/>
		</contour>
	</outline>
</glyph>
<glyph name="cedilla" format="2">
	<unicode hex="00B8"/>
	<advance width="324"/>
	<outline>
		<contour>
			<point x="74" y="-140" type="line"/>
			<point x="85.041" y="-187.176"/>
			<point x="116.171" y="-213"/>
			<point x="162" y="-213" type="curve" smooth="yes"/>
			<point x="213.745" y="-213"/>
			<point x="250" y="-174.273"/>
			<point x="250" y="-119" type="curve" smooth="yes"/>
			<point x="250" y="-71.816"/>
			<point x="218.825" y="-39"/>
			<point x="174" y="-39" type="curve" smooth="yes"/>
			<point x="163.625" y="-39"/>
			<point x="156.962" y="-40.615"/>
			<point x="141" y="-47" type="curve"/>
			<point x="160" y="0" type="line"/>
			<point x="124" y="0" type="line"/>
			<point x="89" y="-79" type="line"/>
			<point x="118" y="-96" type="line"/>
			<point x="132.656" y="-78.204"/>
			<point x="143.771" y="-72"/>
			<point x="161" y="-72" type="curve" smooth="yes"/>
			<point x="188.212" y="-72"/>
			<point x="207" y="-93.239"/>
			<point x="207" y="-124" type="curve" smooth="yes"/>
			<point x="207" y="-151.091"/>
			<point x="188.913" y="-170"/>
			<point x="163" y="-170" type="curve" smooth="yes"/>
			<point x="140.357" y="-170"/>
			<point x="124.096" y="-157.353"/>
			<point x="118" y="-135" type="curve"/>
		</contour>
	</outline>
</glyph>
<glyph name="ordmasculine" format="2">
	<unicode hex="00BA"/>
	<advance width="369"/>
	<outline>
		<contour>
			<point x="184" y="442" type="curve" smooth="yes"/>
			<point x="267.773" y="442"/>
			<point x="337" y="510.775"/>
			<point x="337" y="594" type="curve" smooth="yes"/>
			<point x="337" y="675.5"/>
			<point x="267.5" y="745"/>
			<point x="186" y="745" type="curve" smooth="yes"/>
			<point x="100.947" y="745"/>
			<point x="32" y="676.948"/>
			<point x="32" y="593" type="curve" smooth="yes"/>
			<point x="32" y="510.273"/>
			<point x="100.725" y="442"/>
		</contour>
		<contour>
			<point x="185" y="491" type="curve" smooth="yes"/>
			<point x="128.845" y="491"/>
			<point x="85" y="536.16"/>
			<point x="85" y="594" type="curve" smooth="yes"/>
			<point x="85" y="650.102"/>
			<point x="129.098" y="696"/>
			<point x="183" y="696" type="curve" smooth="yes"/>
			<point x="239.937" y="696"/>
			<point x="284" y="651.064"/>
			<point x="284" y="593" type="curve" smooth="yes"/>
			<point x="284" y="536.167"/>
			<point x="240.162" y="491"/>
		</contour>
		<contour>
			<point x="32" y="319" type="line"/>
			<point x="337" y="319" type="line"/>
			<point x="337" y="370" type="line"/>
			<point x="32" y="370" type="line"/>
		</contour>
	</outline>
</glyph>
<glyph name="threequarters" format="2">
	<unicode hex="00BE"/>
	<advance width="831"/>
	<outline>
		<contour>
			<point x="13" y="439" type="line"/>
			<point x="15.461" y="343.028"/>
			<point x="76.11" y="280"/>
			<point x="166" y="280" type="curve" smooth="yes"/>
			<point x="249.133" y="280"/>
			<point x="319" y="347.127"/>
			<point x="319" y="427" type="curve" smooth="yes"/>
			<point x="319" y="477.45"/>
			<point x="295.584" y="517.256"/>
			<point x="249" y="546" type="curve"/>
			<point x="280" y="574"/>
			<point x="290" y="594"/>
			<point x="290" y="628" type="curve" smooth="yes"/>
			<point x="290" y="694.878"/>
			<point x="236.126" y="747"/>
			<point x="167" y="747" type="curve" smooth="yes"/>
			<point x="92.424" y="747"/>
			<point x="44.006" y="695.458"/>
			<point x="43" y="615" type="curve"/>
			<point x="104" y="615" type="line"/>
			<point x="104" y="663.854"/>
			<point x="126.663" y="692"/>
			<point x="166" y="692" type="curve" smooth="yes"/>
			<point x="202.074" y="692"/>
			<point x="229" y="665.929"/>
			<point x="229" y="631" type="curve" smooth="yes"/>
			<point x="229" y="592.954"/>
			<point x="198.938" y="570.5"/>
			<point x="148" y="570.5" type="curve" smooth="yes"/>
			<point x="128" y="570.5" type="line"/>
			<point x="128" y="516.947" type="line"/>
			<point x="144.275" y="516.947" type="line" smooth="yes"/>
			<point x="215.021" y="516.947"/>
			<point x="258" y="482.198"/>
			<point x="258" y="425" type="curve" smooth="yes"/>
			<point x="258" y="376.806"/>
			<point x="214.8" y="335"/>
			<point x="165" y="335" type="curve" smooth="yes"/>
			<point x="112.069" y="335"/>
			<point x="77.388" y="374.636"/>
			<point x="74" y="439" type="curve"/>
		</contour>
		<contour>
			<point x="239" y="0" type="line"/>
			<point x="293" y="0" type="line"/>
			<point x="635" y="739" type="line"/>
			<point x="580" y="739" type="line"/>
		</contour>
		<contour>
			<point x="470" y="79" type="line"/>
			<point x="701" y="79" type="line"/>
			<point x="701" y="0" type="line"/>
			<point x="761" y="0" type="line"/>
			<point x="761" y="79" type="line"/>
			<point x="803" y="79" type="line"/>
			<point x="803" y="134" type="line"/>
			<point x="761" y="134" type="line"/>
			<point x="761" y="451" type="line"/>
			<point x="696" y="451" type="line"/>
			<point x="470" y="129" type="line"/>
		</contour>
		<contour>
			<point x="545" y="134" type="line"/>
			<point x="701" y="359" type="line"/>
			<point x="701" y="134" type="line"/>
		</contour>
	</outline>
</glyph>
<glyph name="Atilde" format="2">
	<unicode hex="00C3"/>
	<advance width="740"/>
	<outline>
		<contour>
			<point x="11" y="0" type="line"/>
			<point x="89" y="0" type="line"/>
			<point x="197" y="249" type="line"/>
			<point x="541" y="249" type="line"/>
			<point x="648" y="0" type="line"/>
			<point x="729" y="0" type="line"/>
			<point x="411" y="739" type="line"/>
			<point x="328" y="739" type="line"/>
		</contour>
		<contour>
			<point x="225" y="316" type="line"/>
			<point x="370" y="655" type="line"/>
			<point x="512" y="316" type="line"/>
		</contour>
		<contour>
			<point x="261" y="815" type="line"/>
			<point x="278.118" y="834.898"/>
			<point x="300.809" y="847"/>
			<point x="321" y="847" type="curve" smooth="yes"/>
			<point x="332.365" y="847"/>
			<point x="346.721" y="843.411"/>
			<point x="361" y="837" type="curve" smooth="yes"/>
			<point x="399.758" y="819.599"/>
			<point x="413.553" y="815"/>
			<point x="427" y="815" type="curve" smooth="yes"/>
			<point x="459.643" y="815"/>
			<point x="501.823" y="837.712"/>
			<point x="518" y="864" type="curve"/>
			<point x="485" y="910" type="line"/>
			<point x="464.244" y="888.255"/>
			<point x="447.226" y="879"/>
			<point x="428" y="879" type="curve" smooth="yes"/>
			<point x="419.289" y="879"/>
			<point x="397.422" y="885.378"/>
			<point x="380" y="893" type="curve" smooth="yes"/>
			<point x="347.057" y="907.413"/>
			<point x="338.077" y="910"/>
			<point x="321" y="910" type="curve" smooth="yes"/>
			<point x="285.082" y="910"/>
			<point x="251.052" y="892.071"/>
			<point x="228" y="861" type="curve"/>
		</contour>
	</outline>
	<anchor name="Anchor-0" x="370" y="987"/>
</glyph>
<glyph name="Aring" format="2">
	<unicode hex="00C5"/>
	<advance width="740"/>
	<outline>
		<contour>
			<point x="11" y="0" type="line"/>
			<point x="89" y="0" type="line"/>
			<point x="197" y="249" type="line"/>
			<point x="541" y="249" type="line"/>
			<point x="648" y="0" type="line"/>
			<point x="729" y="0" type="line"/>
			<point x="411" y="739" type="line"/>
			<point x="328" y="739" type="line"/>
		</contour>
		<contour>
			<point x="225" y="316" type="line"/>
			<point x="370" y="655" type="line"/>
			<point x="512" y="316" type="line"/>
		</contour>
		<contour>
			<point x="278" y="883" type="curve" smooth="yes"/>
			<point x="278" y="832.777"/>
			<point x="319.225" y="792"/>
			<point x="370" y="792" type="curve" smooth="yes"/>
			<point x="421" y="792"/>
			<point x="462" y="833"/>
			<point x="462" y="884" type="curve" smooth="yes"/>
			<point x="462" y="934.275"/>
			<point x="420.728" y="976"/>
			<point x="371" y="976" type="curve" smooth="yes"/>
			<point x="319" y="976"/>
			<point x="278" y="935"/>
		</contour>
		<contour>
			<point x="319" y="883" type="curve" smooth="yes"/>
			<point x="319" y="911.54"/>
			<point x="341.558" y="935"/>
			<point x="369" y="935" type="curve" smooth="yes"/>
			<point x="398" y="935"/>
			<point x="421" y="912"/>
			<point x="421" y="883" type="curve" smooth="yes"/>
			<point x="421" y="855.775"/>
			<point x="397.77" y="833"/>
			<point x="370" y="833" type="curve" smooth="yes"/>
			<point x="341.72" y="833"/>
			<point x="319" y="855.275"/>
		</contour>
	</outline>
	<anchor name="Anchor-0" x="370" y="1002"/>
</glyph>
<glyph name="Ccedilla" format="2">
	<unicode hex="00C7"/>
	<advance width="813"/>
	<outline>
		<contour>
			<point x="331" y="-166" type="line"/>
			<point x="345.102" y="-214.35"/>
			<point x="377.338" y="-240"/>
			<point x="424" y="-240" type="curve" smooth="yes"/>
			<point x="478.116" y="-240"/>
			<point x="516" y="-200.88"/>
			<point x="516" y="-145" type="curve" smooth="yes"/>
			<point x="516" y="-94.909"/>
			<point x="484.917" y="-61"/>
			<point x="439" y="-61" type="curve" smooth="yes"/>
			<point x="427.857" y="-61"/>
			<point x="420.167" y="-62.583"/>
			<point x="405" y="-68" type="curve"/>
			<point x="429" y="-13" type="line"/>
			<point x="582.519" y="-13"/>
			<point x="698.777" y="57.573"/>
			<point x="770" y="194" type="curve"/>
			<point x="688" y="194" type="line"/>
			<point x="614.668" y="97.91"/>
			<point x="535.331" y="55"/>
			<point x="431" y="55" type="curve" smooth="yes"/>
			<point x="258.829" y="55"/>
			<point x="119" y="196.173"/>
			<point x="119" y="370" type="curve" smooth="yes"/>
			<point x="119" y="548.354"/>
			<point x="253.35" y="684"/>
			<point x="430" y="684" type="curve" smooth="yes"/>
			<point x="542.118" y="684"/>
			<point x="626.232" y="638.631"/>
			<point x="684" y="547" type="curve"/>
			<point x="767" y="547" type="line"/>
			<point x="710.118" y="673.738"/>
			<point x="580.317" y="752"/>
			<point x="427" y="752" type="curve" smooth="yes"/>
			<point x="207.074" y="752"/>
			<point x="44" y="588.074"/>
			<point x="44" y="367" type="curve" smooth="yes"/>
			<point x="44" y="165.814"/>
			<point x="176.928" y="20.209"/>
			<point x="390" y="-12" type="curve"/>
			<point x="348" y="-103" type="line"/>
			<point x="378" y="-121" type="line"/>
			<point x="393.441" y="-104.529"/>
			<point x="404.5" y="-99"/>
			<point x="422" y="-99" type="curve" smooth="yes"/>
			<point x="448.917" y="-99"/>
			<point x="468" y="-118.913"/>
			<point x="468" y="-147" type="curve" smooth="yes"/>
			<point x="468" y="-175.311"/>
			<point x="450.696" y="-193"/>
			<point x="423" y="-193" type="curve" smooth="yes"/>
			<point x="399.618" y="-193"/>
			<point x="385.871" y="-182.614"/>
			<point x="378" y="-159" type="curve"/>
		</contour>
	</outline>
	<anchor name="Anchor-0" x="427" y="805"/>
</glyph>
<glyph name="Eth" format="2">
	<unicode hex="00D0"/>
	<advance width="790"/>
	<outline>
		<contour>
			<point x="122" y="0" type="line"/>
			<point x="321" y="0" type="line" smooth="yes"/>
			<point x="588.691" y="0"/>
			<point x="746" y="135.841"/>
			<point x="746" y="367" type="curve" smooth="yes"/>
			<point x="746" y="608.306"/>
			<point x="587.903" y="739"/>
			<point x="296" y="739" type="curve" smooth="yes"/>
			<point x="122" y="739" type="line"/>
			<point x="122" y="414" type="line"/>
			<point x="26" y="414" type="line"/>
			<point x="26" y="347" type="line"/>
			<point x="122" y="347" type="line"/>
		</contour>
		<contour>
			<point x="196" y="67" type="line"/>
			<point x="196" y="347" type="line"/>
			<point x="401" y="347" type="line"/>
			<point x="401" y="414" type="line"/>
			<point x="196" y="414" type="line"/>
			<point x="196" y="672" type="line"/>
			<point x="299" y="672" type="line" smooth="yes"/>
			<point x="542.287" y="672"/>
			<point x="671" y="567.507"/>
			<point x="671" y="370" type="curve" smooth="yes"/>
			<point x="671" y="170.742"/>
			<point x="543.633" y="67"/>
			<point x="299" y="67" type="curve" smooth="yes"/>
		</contour>
	</outline>
	<anchor name="Anchor-0" x="330" y="805"/>
</glyph>
<glyph name="Ocircumflex" format="2">
	<unicode hex="00D4"/>
	<advance width="869"/>
	<outline>
		<component base="O"/>
		<contour>
			<point x="257" y="805" type="line"/>
			<point x="348" y="805" type="line"/>
			<point x="436" y="879" type="line"/>
			<point x="522" y="805" type="line"/>
			<point x="611" y="805" type="line"/>
			<point x="468" y="931" type="line"/>
			<point x="402" y="931" type="line"/>
		</contour>
	</outline>
	<anchor name="Anchor-0" x="434" y="987"/>
</glyph>
<glyph name="Oslash" format="2">
	<unicode hex="00D8"/>
	<advance width="868"/>
	<outline>
		<contour>
			<point x="44" y="370" type="curve" smooth="yes"/>
			<point x="44" y="255.273"/>
			<point x="90.797" y="153.169"/>
			<point x="176" y="82" type="curve"/>
			<point x="83" y="-42" type="line"/>
			<point x="139" y="-83" type="line"/>
			<point x="233" y="42" type="line"/>
			<point x="292.522" y="6.287"/>
			<point x="364.409" y="-13"/>
			<point x="438" y="-13" type="curve" smooth="yes"/>
			<point x="653.279" y="-13"/>
			<point x="824" y="157.279"/>
			<point x="824" y="372" type="curve" smooth="yes"/>
			<point x="824" y="487.167"/>
			<point x="779.873" y="582.107"/>
			<point x="692" y="656" type="curve"/>
			<point x="784" y="779" type="line"/>
			<point x="730" y="821" type="line"/>
			<point x="636" y="696" type="line"/>
			<point x="586.68" y="730.524"/>
			<point x="508.063" y="752"/>
			<point x="431" y="752" type="curve" smooth="yes"/>
			<point x="214.099" y="752"/>
			<point x="44" y="584.098"/>
		</contour>
		<contour>
			<point x="119" y="366" type="curve" smooth="yes"/>
			<point x="119" y="544.969"/>
			<point x="254.97" y="684"/>
			<point x="430" y="684" type="curve" smooth="yes"/>
			<point x="491.221" y="684"/>
			<point x="549.165" y="668.899"/>
			<point x="595" y="641" type="curve"/>
			<point x="219" y="138" type="line"/>
			<point x="151.91" y="201.084"/>
			<point x="119" y="276.12"/>
		</contour>
		<contour>
			<point x="274" y="97" type="curve"/>
			<point x="650" y="600" type="line"/>
			<point x="717.755" y="534.237"/>
			<point x="749" y="461.333"/>
			<point x="749" y="369" type="curve" smooth="yes"/>
			<point x="749" y="193.22"/>
			<point x="611.22" y="55"/>
			<point x="436" y="55" type="curve" smooth="yes"/>
			<point x="377.143" y="55"/>
			<point x="331.139" y="66.927"/>
		</contour>
	</outline>
	<anchor name="Anchor-0" x="434" y="805"/>
</glyph>
<glyph name="Ugrave" format="2">
	<unicode hex="00D9"/>
	<advance width="655"/>
	<outline>
		<component base="U"/>
		<contour>
			<point x="179" y="900" type="line"/>
			<point x="376" y="792" type="line"/>
			<point x="409" y="848" type="line"/>
			<point x="211" y="958" type="line"/>
		</contour>
	</outline>
	<anchor name="Anchor-0" x="327" y="987"/>
</glyph>
<glyph name="Ucircumflex" format="2">
	<unicode hex="00DB"/>
	<advance width="655"/>
	<outline>
		<component base="U"/>
		<contour>
			<point x="150" y="805" type="line"/>
			<point x="241" y="805" type="line"/>
			<point x="329" y="879" type="line"/>
			<point x="415" y="805" type="line"/>
			<point x="504" y="805" type="line"/>
			<point x="361" y="931" type="line"/>
			<point x="295" y="931" type="line"/>
		</contour>
	</outline>
	<anchor name="Anchor-0" x="327" y="987"/>
</glyph>
<glyph name="Udieresis" format="2">
	<unicode hex="00DC"/>
	<advance width="655"/>
	<outline>
		<component base="U"/>
		<contour>
			<point x="217" y="805" type="line"/>
			<point x="291" y="805" type="line"/>
			<point x="291" y="931" type="line"/>
			<point x="217" y="931" type="line"/>
		</contour>
		<contour>
			<point x="364" y="805" type="line"/>
			<point x="438" y="805" type="line"/>
			<point x="438" y="931" type="line"/>
			<point x="364" y="931" type="line"/>
		</contour>
	</outline>
	<anchor name="Anchor-0" x="327" y="987"/>
</glyph>
<glyph name="Thorn" format="2">
	<unicode hex="00DE"/>
	<advance width="592"/>
	<outline>
		<contour>
			<point x="76" y="0" type="line"/>
			<point x="150" y="0" type="line"/>
			<point x="150" y="166" type="line"/>
			<point x="292" y="166" type="line" smooth="yes"/>
			<point x="390.568" y="166"/>
			<point x="445.249" y="178.64"/>
			<point x="491" y="212" type="curve" smooth="yes"/>
			<point x="538.595" y="246.705"/>
			<point x="565" y="307.365"/>
			<point x="565" y="382" type="curve" smooth="yes"/>
			<point x="565" y="465.962"/>
			<point x="533.216" y="532.782"/>
			<point x="477" y="567" type="curve" smooth="yes"/>
			<point x="431.105" y="594.936"/>
			<point x="375.218" y="606"/>
			<point x="280" y="606" type="curve" smooth="yes"/>
			<point x="143" y="606" type="line"/>
			<point x="143" y="739" type="line"/>
			<point x="76" y="739" type="line"/>
		</contour>
		<contour>
			<point x="150" y="233" type="line"/>
			<point x="150" y="539" type="line"/>
			<point x="255" y="539" type="line" smooth="yes"/>
			<point x="325.385" y="539"/>
			<point x="372.619" y="534.028"/>
			<point x="407" y="523" type="curve" smooth="yes"/>
			<point x="459.854" y="506.047"/>
			<point x="490" y="455.199"/>
			<point x="490" y="383" type="curve" smooth="yes"/>
			<point x="490" y="324.541"/>
			<point x="467.696" y="278.836"/>
			<point x="429" y="258" type="curve"/>
			<point x="398.705" y="240.409"/>
			<point x="356.62" y="233"/>
			<point x="287" y="233" type="curve" smooth="yes"/>
		</contour>
	</outline>
	<anchor name="Anchor-0" x="296" y="805"/>
</glyph>
<glyph name="aacute" format="2">
	<unicode hex="00E1"/>
	<advance width="683"/>
	<outline>
		<component base="a"/>
		<contour>
			<point x="305" y="610" type="line"/>
			<point x="498" y="724" type="line"/>
			<point x="464" y="782" type="line"/>
			<point x="271" y="666" type="line"/>
		</contour>
	</outline>
	<anchor name="Anchor-0" x="351" y="805"/>
</glyph>
<glyph name="atilde" format="2">
	<unicode hex="00E3"/>
	<advance width="683"/>
	<outline>
		<component base="a"/>
		<contour>
			<point x="239" y="633" type="line"/>
			<point x="257.488" y="655.02"/>
			<point x="276.201" y="665"/>
			<point x="299" y="665" type="curve" smooth="yes"/>
			<point x="310.365" y="665"/>
			<point x="324.721" y="661.411"/>
			<point x="339" y="655" type="curve" smooth="yes"/>
			<point x="377.758" y="637.599"/>
			<point x="391.553" y="633"/>
			<point x="405" y="633" type="curve" smooth="yes"/>
			<point x="437.643" y="633"/>
			<point x="479.823" y="655.712"/>
			<point x="496" y="682" type="curve"/>
			<point x="463" y="728" type="line"/>
			<point x="442.244" y="706.255"/>
			<point x="425.226" y="697"/>
			<point x="406" y="697" type="curve" smooth="yes"/>
			<point x="397.289" y="697"/>
			<point x="375.422" y="703.378"/>
			<point x="358" y="711" type="curve" smooth="yes"/>
			<point x="325.057" y="725.413"/>
			<point x="316.077" y="728"/>
			<point x="299" y="728" type="curve" smooth="yes"/>
			<point x="263.082" y="728"/>
			<point x="229.052" y="710.071"/>
			<point x="206" y="679" type="curve"/>
		</contour>
	</outline>
	<anchor name="Anchor-0" x="351" y="805"/>
</glyph>
<glyph name="adieresis" format="2">
	<unicode hex="00E4"/>
	<advance width="683"/>
	<outline>
		<component base="a"/>
		<contour>
			<point x="241" y="623" type="line"/>
			<point x="315" y="623" type="line"/>
			<point x="315" y="749" type="line"/>
			<point x="241" y="749" type="line"/>
		</contour>
		<contour>
			<point x="388" y="623" type="line"/>
			<point x="462" y="623" type="line"/>
			<point x="462" y="749" type="line"/>
			<point x="388" y="749" type="line"/>
		</contour>
	</outline>
	<anchor name="Anchor-0" x="351" y="805"/>
</glyph>
<glyph name="eacute" format="2">
	<unicode hex="00E9"/>
	<advance width="650"/>
	<outline>
		<component base="e"/>
		<contour>
			<point x="280" y="610" type="line"/>
			<point x="473" y="724" type="line"/>
			<point x="439" y="782" type="line"/>
			<point x="246" y="666" type="line"/>
		</contour>
	</outline>
	<anchor name="Anchor-0" x="329" y="805"/>
</glyph>
<glyph name="ecircumflex" format="2">
	<unicode hex="00EA"/>
	<advance width="650"/>
	<outline>
		<component base="e"/>
		<contour>
			<point x="153" y="623" type="line"/>
			<point x="244" y="623" type="line"/>
			<point x="332" y="697" type="line"/>
			<point x="418" y="623" type="line"/>
			<point x="507" y="623" type="line"/>
			<point x="364" y="749" type="line"/>
			<point x="298" y="749" type="line"/>
		</contour>
	</outline>
	<anchor name="Anchor-0" x="329" y="805"/>
</glyph>
<glyph name="igrave" format="2">
	<unicode hex="00EC"/>
	<advance width="200"/>
	<outline>
		<contour>
			<point x="63" y="0" type="line"/>
			<point x="137" y="0" type="line"/>
			<point x="137" y="547" type="line"/>
			<point x="63" y="547" type="line"/>
		</contour>
		<contour>
			<point x="-15" y="718" type="line"/>
			<point x="182" y="610" type="line"/>
			<point x="215" y="666" type="line"/>
			<point x="17" y="776" type="line"/>
		</contour>
	</outline>
	<anchor name="Anchor-0" x="100" y="805"/>
</glyph>
<glyph name="iacute" format="2">
	<unicode hex="00ED"/>
	<advance width="200"/>
	<outline>
		<contour>
			<point x="63" y="0" type="line"/>
			<point x="137" y="0" type="line"/>
			<point x="137" y="547" type="line"/>
			<point x="63" y="547" type="line"/>
		</contour>
		<contour>
			<point x="21" y="610" type="line"/>
			<point x="214" y="724" type="line"/>
			<point x="180" y="782" type="line"/>
			<point x="-13" y="666" type="line"/>
		</contour>
	</outline>
	<anchor name="Anchor-0" x="100" y="805"/>
</glyph>
<glyph name="eth" format="2">
	<unicode hex="00F0"/>
	<advance width="655"/>
	<outline>
		<contour>
			<point x="42" y="274" type="curve" smooth="yes"/>
			<point x="42" y="108.938"/>
			<point x="166.063" y="-13"/>
			<point x="334" y="-13" type="curve" smooth="yes"/>
			<point x="498.671" y="-13"/>
			<point x="613" y="106.656"/>
			<point x="613" y="279" type="curve" smooth="yes"/>
			<point x="613" y="406.032"/>
			<point x="547.655" y="512.427"/>
			<point x="379" y="660" type="curve"/>
			<point x="468" y="699" type="line"/>
			<point x="429" y="743" type="line"/>
			<point x="334" y="701" type="line"/>
			<point x="306.817" y="726.008"/>
			<point x="293.77" y="736.561"/>
			<point x="266" y="756" type="curve"/>
			<point x="213" y="727" type="line"/>
			<point x="236.4" y="708.894"/>
			<point x="256.028" y="690.901"/>
			<point x="273" y="672" type="curve"/>
			<point x="194" y="637" type="line"/>
			<point x="230" y="591" type="line"/>
			<point x="317" y="630" type="line"/>
			<point x="348.662" y="602.296"/>
			<point x="350.342" y="600.669"/>
			<point x="412" y="538" type="curve"/>
			<point x="367.416" y="552.516"/>
			<point x="348.833" y="556"/>
			<point x="316" y="556" type="curve" smooth="yes"/>
			<point x="159.784" y="556"/>
			<point x="42" y="434.777"/>
		</contour>
		<contour>
			<point x="117" y="272" type="curve" smooth="yes"/>
			<point x="117" y="398.158"/>
			<point x="206.15" y="492"/>
			<point x="326" y="492" type="curve" smooth="yes"/>
			<point x="449.873" y="492"/>
			<point x="538" y="400.132"/>
			<point x="538" y="271" type="curve" smooth="yes"/>
			<point x="538" y="144.28"/>
			<point x="453.266" y="55"/>
			<point x="333" y="55" type="curve" smooth="yes"/>
			<point x="208.288" y="55"/>
			<point x="117" y="146.711"/>
		</contour>
	</outline>
	<anchor name="Anchor-0" x="330" y="805"/>
</glyph>
<glyph name="ograve" format="2">
	<unicode hex="00F2"/>
	<advance width="655"/>
	<outline>
		<contour>
			<point x="42" y="273" type="curve" smooth="yes"/>
			<point x="42" y="109.216"/>
			<point x="166.78" y="-13"/>
			<point x="334" y="-13" type="curve" smooth="yes"/>
			<point x="494.774" y="-13"/>
			<point x="613" y="107.769"/>
			<point x="613" y="272" type="curve" smooth="yes"/>
			<point x="613" y="437.005"/>
			<point x="492.995" y="560"/>
			<point x="332" y="560" type="curve" smooth="yes"/>
			<point x="164.132" y="560"/>
			<point x="42" y="439.131"/>
		</contour>
		<contour>
			<point x="332" y="55" type="curve" smooth="yes"/>
			<point x="208.076" y="55"/>
			<point x="117" y="146.923"/>
			<point x="117" y="272" type="curve" smooth="yes"/>
			<point x="117" y="398.158"/>
			<point x="206.15" y="492"/>
			<point x="326" y="492" type="curve" smooth="yes"/>
			<point x="449.873" y="492"/>
			<point x="538" y="400.132"/>
			<point x="538" y="271" type="curve" smooth="yes"/>
			<point x="538" y="145.087"/>
			<point x="452.083" y="55"/>
		</contour>
		<contour>
			<point x="179" y="718" type="line"/>
			<point x="376" y="610" type="line"/>
			<point x="409" y="666" type="line"/>
			<point x="211" y="776" type="line"/>
		</contour>
	</outline>
	<anchor name="Anchor-0" x="327" y="805"/>
</glyph>
<glyph name="udieresis" format="2">
	<unicode hex="00FC"/>
	<advance width="608"/>
	<outline>
		<component base="u"/>
		<contour>
			<point x="194" y="623" type="line"/>
			<point x="268" y="623" type="line"/>
			<point x="268" y="749" type="line"/>
			<point x="194" y="749" type="line"/>
		</contour>
		<contour>
			<point x="341" y="623" type="line"/>
			<point x="415" y="623" type="line"/>
			<point x="415" y="749" type="line"/>
			<point x="341" y="749" type="line"/>
		</contour>
	</outline>
	<anchor name="Anchor-0" x="304" y="805"/>
</glyph>
<glyph name="thorn" format="2">
	<unicode hex="00FE"/>
	<advance width="682"/>
	<outline>
		<contour>
			<point x="63" y="-192" type="line"/>
			<point x="137" y="-192" type="line"/>
			<point x="137" y="94" type="line"/>
			<point x="184.909" y="24.132"/>
			<point x="258.827" y="-13"/>
			<point x="350" y="-13" type="curve" smooth="yes"/>
			<point x="513.626" y="-13"/>
			<point x="640" y="111.631"/>
			<point x="640" y="273" type="curve" smooth="yes"/>
			<point x="640" y="435.717"/>
			<point x="515.284" y="560"/>
			<point x="352" y="560" type="curve" smooth="yes"/>
			<point x="257.673" y="560"/>
			<point x="182.841" y="522.758"/>
			<point x="137" y="453" type="curve"/>
			<point x="137" y="739" type="line"/>
			<point x="63" y="739" type="line"/>
		</contour>
		<contour>
			<point x="349" y="55" type="curve" smooth="yes"/>
			<point x="226.282" y="55"/>
			<point x="132" y="149.717"/>
			<point x="132" y="273" type="curve" smooth="yes"/>
			<point x="132" y="395.902"/>
			<point x="225.904" y="492"/>
			<point x="346" y="492" type="curve" smooth="yes"/>
			<point x="473.416" y="492"/>
			<point x="565" y="399.58"/>
			<point x="565" y="271" type="curve" smooth="yes"/>
			<point x="565" y="148"/>
			<point x="472" y="55"/>
		</contour>
	</outline>
	<anchor name="Anchor-0" x="369" y="623"/>
</glyph>
<glyph name="ydieresis" format="2">
	<unicode hex="00FF"/>
	<advance width="536"/>
	<outline>
		<contour>
			<point x="132" y="-192" type="line"/>
			<point x="211" y="-192" type="line"/>
			<point x="527" y="547" type="line"/>
			<point x="448" y="547" type="line"/>
			<point x="263" y="111" type="line"/>
			<point x="90" y="547" type="line"/>
			<point x="9" y="547" type="line"/>
			<point x="221" y="18" type="line"/>
		</contour>
		<contour>
			<point x="155" y="623" type="line"/>
			<point x="229" y="623" type="line"/>
			<point x="229" y="749" type="line"/>
			<point x="155" y="749" type="line"/>
		</contour>
		<contour>
			<point x="302" y="623" type="line"/>
			<point x="376" y="623" type="line"/>
			<point x="376" y="749" type="line"/>
			<point x="302" y="749" type="line"/>
		</contour>
	</outline>
	<anchor name="Anchor-0" x="265" y="805"/>
</glyph>
<glyph name="scaron" format="2">
	<unicode hex="0161"/>
	<advance width="388"/>
	<outline>
		<component base="s"/>
		<contour>
			<point x="17" y="749" type="line"/>
			<point x="160" y="623" type="line"/>
			<point x="226" y="623" type="line"/>
			<point x="371" y="749" type="line"/>
			<point x="280" y="749" type="line"/>
			<point x="192" y="675" type="line"/>
			<point x="106" y="749" type="line"/>
		</contour>
	</outline>
	<anchor name="Anchor-0" x="194" y="805"/>
</glyph>
<glyph name="zcaron" format="2">
	<unicode hex="017E"/>
	<advance width="425"/>
	<outline>
		<contour>
			<point x="10" y="0" type="line"/>
			<point x="415" y="0" type="line"/>
			<point x="415" y="67" type="line"/>
			<point x="97" y="67" type="line"/>
			<point x="396" y="484" type="line"/>
			<point x="396" y="547" type="line"/>
			<point x="20" y="547" type="line"/>
			<point x="20" y="480" type="line"/>
			<point x="312" y="480" type="line"/>
			<point x="10" y="67" type="line"/>
		</contour>
		<contour>
			<point x="35" y="749" type="line"/>
			<point x="178" y="623" type="line"/>
			<point x="244" y="623" type="line"/>
			<point x="389" y="749" type="line"/>
			<point x="298" y="749" type="line"/>
			<point x="210" y="675" type="line"/>
			<point x="124" y="749" type="line"/>
		</contour>
	</outline>
	<anchor name="Anchor-0" x="212" y="805"/>
</glyph>
<glyph name="florin" format="2">
	<unicode hex="0192"/>
	<advance width="554"/>
	<outline>
		<contour>
			<point x="18" y="-146" type="line"/>
			<point x="36.604" y="-151.168"/>
			<point x="51.786" y="-153"/>
			<point x="76" y="-153" type="curve" smooth="yes"/>
			<point x="208.835" y="-153"/>
			<point x="267.196" y="-90.731"/>
			<point x="300" y="86" type="curve" smooth="yes"/>
			<point x="380" y="517" type="line"/>
			<point x="492" y="517" type="line"/>
			<point x="504" y="584" type="line"/>
			<point x="392" y="584" type="line"/>
			<point x="396" y="607" type="line" smooth="yes"/>
			<point x="412.467" y="701.686"/>
			<point x="452.877" y="751"/>
			<point x="514" y="751" type="curve" smooth="yes"/>
			<point x="520.16" y="751"/>
			<point x="528.95" y="750.163"/>
			<point x="535" y="749" type="curve"/>
			<point x="546" y="815" type="line"/>
			<point x="532" y="817"/>
			<point x="525" y="818"/>
			<point x="517" y="818" type="curve" smooth="yes"/>
			<point x="421.188" y="818"/>
			<point x="348.785" y="738.016"/>
			<point x="326" y="607" type="curve" smooth="yes"/>
			<point x="322" y="584" type="line"/>
			<point x="211" y="584" type="line"/>
			<point x="198" y="517" type="line"/>
			<point x="311" y="517" type="line"/>
			<point x="231" y="92" type="line" smooth="yes"/>
			<point x="204.633" y="-48.073"/>
			<point x="172.033" y="-86"/>
			<point x="78" y="-86" type="curve" smooth="yes"/>
			<point x="63.5" y="-86"/>
			<point x="50.3" y="-84.9"/>
			<point x="30" y="-82" type="curve"/>
		</contour>
	</outline>
	<anchor name="Anchor-0" x="425" y="868"/>
</glyph>
<glyph name="breve" format="2">
	<unicode hex="02D8"/>
	<advance width="453"/>
	<outline>
		<contour>
			<point x="74" y="743" type="line"/>
			<point x="88.729" y="659.793"/>
			<point x="135.334" y="623"/>
			<point x="226" y="623" type="curve" smooth="yes"/>
			<point x="315.011" y="623"/>
			<point x="362.903" y="660.809"/>
			<point x="378" y="743" type="curve"/>
			<point x="314" y="743" type="line"/>
			<point x="307.399" y="701.747"/>
			<point x="277.952" y="681"/>
			<point x="226" y="681" type="curve" smooth="yes"/>
			<point x="174.048" y="681"/>
			<point x="144.601" y="701.747"/>
			<point x="138" y="743" type="curve"/>
		</contour>
	</outline>
</glyph>
<glyph name="ring" format="2">
	<unicode hex="02DA"/>
	<advance width="332"/>
	<outline>
		<contour>
			<point x="74" y="701" type="curve" smooth="yes"/>
			<point x="74" y="650.777"/>
			<point x="115.225" y="610"/>
			<point x="166" y="610" type="curve" smooth="yes"/>
			<point x="217" y="610"/>
			<point x="258" y="651"/>
			<point x="258" y="702" type="curve" smooth="yes"/>
			<point x="258" y="752.275"/>
			<point x="216.728" y="794"/>
			<point x="167" y="794" type="curve" smooth="yes"/>
			<point x="115" y="794"/>
			<point x="74" y="753"/>
		</contour>
		<contour>
			<point x="115" y="701" type="curve" smooth="yes"/>
			<point x="115" y="729.54"/>
			<point x="137.558" y="753"/>
			<point x="165" y="753" type="curve" smooth="yes"/>
			<point x="194" y="753"/>
			<point x="217" y="730"/>
			<point x="217" y="701" type="curve" smooth="yes"/>
			<point x="217" y="673.775"/>
			<point x="193.77" y="651"/>
			<point x="166" y="651" type="curve" smooth="yes"/>
			<point x="137.72" y="651"/>
			<point x="115" y="673.275"/>
		</contour>
	</outline>
</glyph>
<glyph name="ogonek" format="2">
	<unicode hex="02DB"/>
	<advance width="302"/>
	<outline>
		<contour>
			<point x="228" y="-136" type="line"/>
			<point x="213.227" y="-142.894"/>
			<point x="199.25" y="-146"/>
			<point x="183" y="-146" type="curve" smooth="yes"/>
			<point x="148.792" y="-146"/>
			<point x="124" y="-125.831"/>
			<point x="124" y="-98" type="curve" smooth="yes"/>
			<point x="124" y="-69.966"/>
			<point x="153.054" y="-30.962"/>
			<point x="197" y="0" type="curve"/>
			<point x="146" y="0" type="line"/>
			<point x="96.087" y="-29.948"/>
			<point x="74" y="-60.931"/>
			<point x="74" y="-101" type="curve" smooth="yes"/>
			<point x="74" y="-153.394"/>
			<point x="117.456" y="-191"/>
			<point x="178" y="-191" type="curve" smooth="yes"/>
			<point x="192.667" y="-191"/>
			<point x="206" y="-188.6"/>
			<point x="228" y="-182" type="curve"/>
		</contour>
	</outline>
</glyph>
<glyph name="gravecomb" format="2">
	<unicode hex="0300"/>
	<outline>
		<contour>
			<point x="-476" y="718" type="line"/>
			<point x="-279" y="610" type="line"/>
			<point x="-246" y="666" type="line"/>
			<point x="-444" y="776" type="line"/>
		</contour>
	</outline>
	<anchor name="Anchor-1" x="-328" y="805"/>
	<anchor name="_Anchor-1" x="-328" y="623"/>
	<anchor name="_Anchor-0" x="-328" y="623"/>
</glyph>
<glyph name="circumflexcomb" format="2">
	<unicode hex="0302"/>
	<outline>
		<contour>
			<point x="-505" y="623" type="line"/>
			<point x="-414" y="623" type="line"/>
			<point x="-326" y="697" type="line"/>
			<point x="-240" y="623" type="line"/>
			<point x="-151" y="623" type="line"/>
			<point x="-294" y="749" type="line"/>
			<point x="-360" y="749" type="line"/>
		</contour>
	</outline>
	<anchor name="Anchor-1" x="-328" y="805"/>
	<anchor name="_Anchor-1" x="-328" y="623"/>
	<anchor name="_Anchor-0" x="-328" y="623"/>
</glyph>
<glyph name="tildecomb" format="2">
	<unicode hex="0303"/>
	<outline>
		<contour>
			<point x="-433" y="633" type="line"/>
			<point x="-415.046" y="654.022"/>
			<point x="-394.463" y="665"/>
			<point x="-373" y="665" type="curve" smooth="yes"/>
			<point x="-363.635" y="665"/>
			<point x="-350.855" y="661.805"/>
			<point x="-333" y="655" type="curve" smooth="yes"/>
			<point x="-292.561" y="639.587"/>
			<point x="-268.332" y="633"/>
			<point x="-252.085" y="633" type="curve" smooth="yes"/>
			<point x="-227.379" y="633"/>
			<point x="-192.219" y="655.644"/>
			<point x="-176" y="682" type="curve"/>
			<point x="-209" y="728" type="line"/>
			<point x="-229.756" y="706.255"/>
			<point x="-246.774" y="697"/>
			<point x="-266" y="697" type="curve" smooth="yes"/>
			<point x="-274.711" y="697"/>
			<point x="-296.578" y="703.378"/>
			<point x="-314" y="711" type="curve" smooth="yes"/>
			<point x="-346.943" y="725.413"/>
			<point x="-355.923" y="728"/>
			<point x="-373" y="728" type="curve" smooth="yes"/>
			<point x="-408.918" y="728"/>
			<point x="-442.948" y="710.071"/>
			<point x="-466" y="679" type="curve"/>
		</contour>
	</outline>
	<anchor name="Anchor-1" x="-330" y="805"/>
	<anchor name="_Anchor-1" x="-330" y="623"/>
	<anchor name="_Anchor-0" x="-330" y="623"/>
</glyph>
<glyph name="dotaccentcomb" format="2">
	<unicode hex="0307"/>
	<outline>
		<contour>
			<point x="-364" y="623" type="line"/>
			<point x="-290" y="623" type="line"/>
			<point x="-290" y="749" type="line"/>
			<point x="-364" y="749" type="line"/>
		</contour>
	</outline>
	<anchor name="Anchor-1" x="-327" y="805"/>
	<anchor name="_Anchor-1" x="-327" y="623"/>
	<anchor name="_Anchor-0" x="-327" y="623"/>
</glyph>
<glyph name="ringcomb" format="2">
	<unicode hex="030A"/>
	<outline>
		<contour>
			<point x="-419" y="701" type="curve" smooth="yes"/>
			<point x="-419" y="650.777"/>
			<point x="-377.775" y="610"/>
			<point x="-327" y="610" type="curve" smooth="yes"/>
			<point x="-276" y="610"/>
			<point x="-235" y="651"/>
			<point x="-235" y="702" type="curve" smooth="yes"/>
			<point x="-235" y="752.275"/>
			<point x="-276.272" y="794"/>
			<point x="-326" y="794" type="curve" smooth="yes"/>
			<point x="-378" y="794"/>
			<point x="-419" y="753"/>
		</contour>
		<contour>
			<point x="-378" y="701" type="curve" smooth="yes"/>
			<point x="-378" y="729.54"/>
			<point x="-355.442" y="753"/>
			<point x="-328" y="753" type="curve" smooth="yes"/>
			<point x="-299" y="753"/>
			<point x="-276" y="730"/>
			<point x="-276" y="701" type="curve" smooth="yes"/>
			<point x="-276" y="673.775"/>
			<point x="-299.23" y="651"/>
			<point x="-327" y="651" type="curve" smooth="yes"/>
			<point x="-355.28" y="651"/>
			<point x="-378" y="673.275"/>
		</contour>
	</outline>
	<anchor name="Anchor-1" x="-327" y="820"/>
	<anchor name="_Anchor-1" x="-327" y="623"/>
	<anchor name="_Anchor-0" x="-327" y="623"/>
</glyph>
<glyph name="hungarumlautcomb" format="2">
	<unicode hex="030B"/>
	<outline>
		<contour>
			<point x="-482" y="610" type="line"/>
			<point x="-308" y="731" type="line"/>
			<point x="-346" y="780" type="line"/>
			<point x="-517" y="657" type="line"/>
		</contour>
		<contour>
			<point x="-286" y="610" type="line"/>
			<point x="-112" y="731" type="line"/>
			<point x="-150" y="780" type="line"/>
			<point x="-321" y="657" type="line"/>
		</contour>
	</outline>
	<anchor name="Anchor-1" x="-328" y="805"/>
	<anchor name="_Anchor-1" x="-328" y="623"/>
	<anchor name="_Anchor-0" x="-328" y="623"/>
</glyph>
<glyph name="caroncomb" format="2">
	<unicode hex="030C"/>
	<outline>
		<contour>
			<point x="-505" y="749" type="line"/>
			<point x="-362" y="623" type="line"/>
			<point x="-296" y="623" type="line"/>
			<point x="-151" y="749" type="line"/>
			<point x="-242" y="749" type="line"/>
			<point x="-330" y="675" type="line"/>
			<point x="-416" y="749" type="line"/>
		</contour>
	</outline>
	<anchor name="Anchor-1" x="-328" y="805"/>
	<anchor name="_Anchor-1" x="-328" y="623"/>
	<anchor name="_Anchor-0" x="-328" y="623"/>
</glyph>
<glyph name="Djecyr" format="2">
	<unicode hex="0402"/>
	<advance width="670"/>
	<outline>
		<contour>
			<point x="176" y="0" type="line"/>
			<point x="250" y="0" type="line"/>
			<point x="250" y="373" type="line"/>
			<point x="392" y="373" type="line" smooth="yes"/>
			<point x="510.551" y="373"/>
			<point x="570" y="323.236"/>
			<point x="570" y="224" type="curve" smooth="yes"/>
			<point x="570" y="94.835"/>
			<point x="517.635" y="54"/>
			<point x="352" y="54" type="curve"/>
			<point x="352" y="-13" type="line"/>
			<point x="567.557" y="-13"/>
			<point x="645" y="49.642"/>
			<point x="645" y="224" type="curve" smooth="yes"/>
			<point x="645" y="365.571"/>
			<point x="559.545" y="440"/>
			<point x="397" y="440" type="curve" smooth="yes"/>
			<point x="250" y="440" type="line"/>
			<point x="250" y="672" type="line"/>
			<point x="439" y="672" type="line"/>
			<point x="439" y="739" type="line"/>
			<point x="7" y="739" type="line"/>
			<point x="7" y="672" type="line"/>
			<point x="176" y="672" type="line"/>
		</contour>
	</outline>
	<anchor name="Anchor-0" x="220" y="805"/>
</glyph>
<glyph name="Tshecyr" format="2">
	<unicode hex="040B"/>
	<advance width="705"/>
	<outline>
		<contour>
			<point x="176" y="0" type="line"/>
			<point x="250" y="0" type="line"/>
			<point x="250" y="371" type="line"/>
			<point x="299.211" y="373.953"/>
			<point x="333.25" y="375"/>
			<point x="380" y="375" type="curve" smooth="yes"/>
			<point x="497.571" y="375"/>
			<point x="559" y="323.866"/>
			<point x="559" y="226" type="curve" smooth="yes"/>
			<point x="559" y="0" type="line"/>
			<point x="633" y="0" type="line"/>
			<point x="633" y="226" type="line" smooth="yes"/>
			<point x="633" y="366.369"/>
			<point x="546.165" y="442"/>
			<point x="385" y="442" type="curve" smooth="yes"/>
			<point x="337" y="442"/>
			<point x="299" y="440"/>
			<point x="250" y="438" type="curve"/>
			<point x="250" y="672" type="line"/>
			<point x="439" y="672" type="line"/>
			<point x="439" y="739" type="line"/>
			<point x="7" y="739" type="line"/>
			<point x="7" y="672" type="line"/>
			<point x="176" y="672" type="line"/>
		</contour>
	</outline>
	<anchor name="Anchor-0" x="220" y="805"/>
</glyph>
<glyph name="Igravecyr" format="2">
	<unicode hex="040D"/>
	<advance width="740"/>
	<outline>
		<contour>
			<point x="215" y="900" type="line"/>
			<point x="412" y="792" type="line"/>
			<point x="445" y="848" type="line"/>
			<point x="247" y="958" type="line"/>
		</contour>
		<contour>
			<point x="76" y="0" type="line"/>
			<point x="150" y="0" type="line"/>
			<point x="590" y="629" type="line"/>
			<point x="590" y="0" type="line"/>
			<point x="664" y="0" type="line"/>
			<point x="664" y="739" type="line"/>
			<point x="590" y="739" type="line"/>
			<point x="150" y="110" type="line"/>
			<point x="150" y="739" type="line"/>
			<point x="76" y="739" type="line"/>
		</contour>
	</outline>
	<anchor name="Anchor-0" x="370" y="987"/>
</glyph>
<glyph name="Ushortcyr" format="2">
	<unicode hex="040E"/>
	<advance width="564"/>
	<outline>
		<contour>
			<point x="115" y="931" type="line"/>
			<point x="129.935" y="842.325"/>
			<point x="187.241" y="796"/>
			<point x="282" y="796" type="curve" smooth="yes"/>
			<point x="376.759" y="796"/>
			<point x="434.065" y="842.325"/>
			<point x="449" y="931" type="curve"/>
			<point x="374" y="931" type="line"/>
			<point x="374" y="871.446"/>
			<point x="343.562" y="842"/>
			<point x="282" y="842" type="curve" smooth="yes"/>
			<point x="220.438" y="842"/>
			<point x="190" y="871.446"/>
			<point x="190" y="931" type="curve"/>
		</contour>
		<contour>
			<point x="159" y="0" type="line"/>
			<point x="237" y="0" type="line"/>
			<point x="554" y="739" type="line"/>
			<point x="476" y="739" type="line"/>
			<point x="282" y="287" type="line"/>
			<point x="88" y="739" type="line"/>
			<point x="10" y="739" type="line"/>
			<point x="243" y="196" type="line"/>
		</contour>
	</outline>
	<anchor name="Anchor-0" x="282" y="987"/>
</glyph>
<glyph name="Becyr" format="2">
	<unicode hex="0411"/>
	<advance width="585"/>
	<outline>
		<contour>
			<point x="150" y="67" type="line"/>
			<point x="150" y="365" type="line"/>
			<point x="283" y="365" type="line" smooth="yes"/>
			<point x="352.75" y="365"/>
			<point x="392.531" y="358.082"/>
			<point x="421" y="341" type="curve"/>
			<point x="458.164" y="321.44"/>
			<point x="480" y="276.288"/>
			<point x="480" y="219" type="curve" smooth="yes"/>
			<point x="480" y="150.062"/>
			<point x="450.629" y="100.747"/>
			<point x="399" y="83" type="curve" smooth="yes"/>
			<point x="366.551" y="71.846"/>
			<point x="322.031" y="67"/>
			<point x="252" y="67" type="curve" smooth="yes"/>
		</contour>
		<contour>
			<point x="76" y="0" type="line"/>
			<point x="277" y="0" type="line" smooth="yes"/>
			<point x="367.897" y="0"/>
			<point x="422.478" y="11.087"/>
			<point x="469" y="39" type="curve" smooth="yes"/>
			<point x="524.081" y="72.049"/>
			<point x="555" y="137.122"/>
			<point x="555" y="220" type="curve" smooth="yes"/>
			<point x="555" y="293.849"/>
			<point x="529.383" y="353.267"/>
			<point x="483" y="387" type="curve" smooth="yes"/>
			<point x="438.053" y="419.689"/>
			<point x="384.978" y="432"/>
			<point x="289" y="432" type="curve" smooth="yes"/>
			<point x="150" y="432" type="line"/>
			<point x="150" y="672" type="line"/>
			<point x="509" y="672" type="line"/>
			<point x="509" y="739" type="line"/>
			<point x="76" y="739" type="line"/>
		</contour>
	</outline>
	<anchor name="Anchor-0" x="284" y="805"/>
</glyph>
<glyph name="Zhecyr" format="2">
	<unicode hex="0416"/>
	<advance width="830"/>
	<outline>
		<contour>
			<point x="6" y="0" type="line"/>
			<point x="99" y="0" type="line"/>
			<point x="378" y="350" type="line"/>
			<point x="378" y="0" type="line"/>
			<point x="452" y="0" type="line"/>
			<point x="452" y="350" type="line"/>
			<point x="731" y="0" type="line"/>
			<point x="824" y="0" type="line"/>
			<point x="525" y="373" type="line"/>
			<point x="824" y="739" type="line"/>
			<point x="732" y="739" type="line"/>
			<point x="452" y="394" type="line"/>
			<point x="452" y="739" type="line"/>
			<point x="378" y="739" type="line"/>
			<point x="378" y="394" type="line"/>
			<point x="98" y="739" type="line"/>
			<point x="6" y="739" type="line"/>
			<point x="305" y="373" type="line"/>
		</contour>
	</outline>
	<anchor name="Anchor-0" x="415" y="805"/>
</glyph>
<glyph name="Zecyr" format="2">
	<unicode hex="0417"/>
	<advance width="518"/>
	<outline>
		<contour>
			<point x="18" y="213" type="line"/>
			<point x="18" y="89.423"/>
			<point x="123.595" y="-13"/>
			<point x="251" y="-13" type="curve" smooth="yes"/>
			<point x="378.971" y="-13"/>
			<point x="484" y="87.972"/>
			<point x="484" y="211" type="curve" smooth="yes"/>
			<point x="484" y="300.75"/>
			<point x="413.23" y="389.212"/>
			<point x="328" y="406" type="curve"/>
			<point x="399.314" y="422.457"/>
			<point x="450" y="485.607"/>
			<point x="450" y="558" type="curve" smooth="yes"/>
			<point x="450" y="664.567"/>
			<point x="359.412" y="752"/>
			<point x="249" y="752" type="curve" smooth="yes"/>
			<point x="139.148" y="752"/>
			<point x="48" y="663.119"/>
			<point x="48" y="556" type="curve"/>
			<point x="125" y="556" type="line"/>
			<point x="125" y="625.835"/>
			<point x="180.815" y="683"/>
			<point x="249" y="683" type="curve" smooth="yes"/>
			<point x="317.185" y="683"/>
			<point x="373" y="625.835"/>
			<point x="373" y="556" type="curve" smooth="yes"/>
			<point x="373" y="478.052"/>
			<point x="313.422" y="434"/>
			<point x="208" y="434" type="curve"/>
			<point x="208" y="367" type="line"/>
			<point x="332.276" y="367"/>
			<point x="405" y="310.15"/>
			<point x="405" y="213" type="curve" smooth="yes"/>
			<point x="405" y="126.442"/>
			<point x="336.449" y="57"/>
			<point x="251" y="57" type="curve" smooth="yes"/>
			<point x="165.551" y="57"/>
			<point x="97" y="126.442"/>
			<point x="97" y="213" type="curve"/>
		</contour>
	</outline>
	<anchor name="Anchor-0" x="248" y="805"/>
</glyph>
<glyph name="Ishortcyr" format="2">
	<unicode hex="0419"/>
	<advance width="740"/>
	<outline>
		<contour>
			<point x="203" y="931" type="line"/>
			<point x="217.935" y="842.325"/>
			<point x="275.241" y="796"/>
			<point x="370" y="796" type="curve" smooth="yes"/>
			<point x="464.759" y="796"/>
			<point x="522.065" y="842.325"/>
			<point x="537" y="931" type="curve"/>
			<point x="462" y="931" type="line"/>
			<point x="462" y="871.446"/>
			<point x="431.562" y="842"/>
			<point x="370" y="842" type="curve" smooth="yes"/>
			<point x="308.438" y="842"/>
			<point x="278" y="871.446"/>
			<point x="278" y="931" type="curve"/>
		</contour>
		<contour>
			<point x="76" y="0" type="line"/>
			<point x="150" y="0" type="line"/>
			<point x="590" y="629" type="line"/>
			<point x="590" y="0" type="line"/>
			<point x="664" y="0" type="line"/>
			<point x="664" y="739" type="line"/>
			<point x="590" y="739" type="line"/>
			<point x="150" y="110" type="line"/>
			<point x="150" y="739" type="line"/>
			<point x="76" y="739" type="line"/>
		</contour>
	</outline>
	<anchor name="Anchor-0" x="370" y="987"/>
</glyph>
<glyph name="Elcyr" format="2">
	<unicode hex="041B"/>
	<advance width="740"/>
	<outline>
		<contour>
			<point x="11" y="0" type="line"/>
			<point x="91" y="0" type="line"/>
			<point x="370" y="655" type="line"/>
			<point x="649" y="0" type="line"/>
			<point x="729" y="0" type="line"/>
			<point x="411" y="739" type="line"/>
			<point x="329" y="739" type="line"/>
		</contour>
	</outline>
	<anchor name="Anchor-0" x="370" y="805"/>
</glyph>
<glyph name="Ucyr" format="2">
	<unicode hex="0423"/>
	<advance width="564"/>
	<outline>
		<contour>
			<point x="159" y="0" type="line"/>
			<point x="237" y="0" type="line"/>
			<point x="554" y="739" type="line"/>
			<point x="476" y="739" type="line"/>
			<point x="282" y="287" type="line"/>
			<point x="88" y="739" type="line"/>
			<point x="10" y="739" type="line"/>
			<point x="243" y="196" type="line"/>
		</contour>
	</outline>
	<anchor name="Anchor-0" x="282" y="805"/>
</glyph>
<glyph name="Efcyr" format="2">
	<unicode hex="0424"/>
	<advance width="812"/>
	<outline>
		<contour>
			<point x="369" y="0" type="line"/>
			<point x="443" y="0" type="line"/>
			<point x="443" y="54" type="line"/>
			<point x="641.257" y="68.578"/>
			<point x="776" y="198.869"/>
			<point x="776" y="376" type="curve" smooth="yes"/>
			<point x="776" y="546.982"/>
			<point x="635.035" y="683.714"/>
			<point x="443" y="699" type="curve"/>
			<point x="443" y="739" type="line"/>
			<point x="369" y="739" type="line"/>
			<point x="369" y="699" type="line"/>
			<point x="176.965" y="683.714"/>
			<point x="36" y="546.982"/>
			<point x="36" y="376" type="curve" smooth="yes"/>
			<point x="36" y="198.869"/>
			<point x="170.743" y="68.578"/>
			<point x="369" y="54" type="curve"/>
		</contour>
		<contour>
			<point x="369" y="122" type="line"/>
			<point x="213.892" y="136.451"/>
			<point x="111" y="237.748"/>
			<point x="111" y="376" type="curve" smooth="yes"/>
			<point x="111" y="510.576"/>
			<point x="218.473" y="616.799"/>
			<point x="369" y="631" type="curve"/>
		</contour>
		<contour>
			<point x="443" y="631" type="line"/>
			<point x="593.527" y="616.799"/>
			<point x="701" y="510.576"/>
			<point x="701" y="376" type="curve" smooth="yes"/>
			<point x="701" y="237.748"/>
			<point x="598.108" y="136.451"/>
			<point x="443" y="122" type="curve"/>
		</contour>
	</outline>
	<anchor name="Anchor-0" x="406" y="805"/>
</glyph>
<glyph name="Ylongcyr" format="2">
	<unicode hex="042B"/>
	<advance width="811"/>
	<outline>
		<contour>
			<point x="76" y="0" type="line"/>
			<point x="280" y="0" type="line" smooth="yes"/>
			<point x="475.935" y="0"/>
			<point x="565" y="67.502"/>
			<point x="565" y="216" type="curve" smooth="yes"/>
			<point x="565" y="359.127"/>
			<point x="478.956" y="425"/>
			<point x="292" y="425" type="curve" smooth="yes"/>
			<point x="150" y="425" type="line"/>
			<point x="150" y="739" type="line"/>
			<point x="76" y="739" type="line"/>
		</contour>
		<contour>
			<point x="150" y="67" type="line"/>
			<point x="150" y="358" type="line"/>
			<point x="287" y="358" type="line" smooth="yes"/>
			<point x="429.558" y="358"/>
			<point x="490" y="315.423"/>
			<point x="490" y="215" type="curve" smooth="yes"/>
			<point x="490" y="66.682"/>
			<point x="366.759" y="67"/>
			<point x="255" y="67" type="curve" smooth="yes"/>
		</contour>
		<contour>
			<point x="661" y="0" type="line"/>
			<point x="735" y="0" type="line"/>
			<point x="735" y="739" type="line"/>
			<point x="661" y="739" type="line"/>
		</contour>
	</outline>
	<anchor name="Anchor-0" x="405" y="805"/>
</glyph>
<glyph name="Softcyr" format="2">
	<unicode hex="042C"/>
	<advance width="590"/>
	<outline>
		<contour>
			<point x="76" y="0" type="line"/>
			<point x="280" y="0" type="line" smooth="yes"/>
			<point x="372.932" y="0"/>
			<point x="429.644" y="10.939"/>
			<point x="477" y="38" type="curve" smooth="yes"/>
			<point x="533.251" y="70.143"/>
			<point x="565" y="134.364"/>
			<point x="565" y="216" type="curve" smooth="yes"/>
			<point x="565" y="287.901"/>
			<point x="538.346" y="347.332"/>
			<point x="491" y="381" type="curve" smooth="yes"/>
			<point x="445.938" y="413.044"/>
			<point x="391.864" y="425"/>
			<point x="292" y="425" type="curve" smooth="yes"/>
			<point x="150" y="425" type="line"/>
			<point x="150" y="739" type="line"/>
			<point x="76" y="739" type="line"/>
		</contour>
		<contour>
			<point x="150" y="67" type="line"/>
			<point x="150" y="358" type="line"/>
			<point x="287" y="358" type="line" smooth="yes"/>
			<point x="355.792" y="358"/>
			<point x="398.353" y="350.807"/>
			<point x="429" y="334" type="curve"/>
			<point x="467.624" y="314.193"/>
			<point x="490" y="270.541"/>
			<point x="490" y="215" type="curve" smooth="yes"/>
			<point x="490" y="146.577"/>
			<point x="459.658" y="97.957"/>
			<point x="407" y="82" type="curve" smooth="yes"/>
			<point x="372.873" y="71.659"/>
			<point x="325.667" y="67"/>
			<point x="255" y="67" type="curve" smooth="yes"/>
		</contour>
	</outline>
	<anchor name="Anchor-0" x="113" y="805"/>
</glyph>
<glyph name="Ereversedcyr" format="2">
	<unicode hex="042D"/>
	<advance width="813"/>
	<outline>
		<contour>
			<point x="43" y="194" type="line"/>
			<point x="117.074" y="56.863"/>
			<point x="231.15" y="-13"/>
			<point x="381" y="-13" type="curve" smooth="yes"/>
			<point x="601.774" y="-13"/>
			<point x="769" y="150.778"/>
			<point x="769" y="367" type="curve" smooth="yes"/>
			<point x="769" y="588.074"/>
			<point x="605.926" y="752"/>
			<point x="386" y="752" type="curve" smooth="yes"/>
			<point x="232.683" y="752"/>
			<point x="102.882" y="673.738"/>
			<point x="46" y="547" type="curve"/>
			<point x="129" y="547" type="line"/>
			<point x="186.969" y="638.875"/>
			<point x="270.631" y="684"/>
			<point x="383" y="684" type="curve" smooth="yes"/>
			<point x="544.091" y="684"/>
			<point x="672.772" y="569.895"/>
			<point x="692" y="410" type="curve"/>
			<point x="224" y="410" type="line"/>
			<point x="224" y="343" type="line"/>
			<point x="693" y="343" type="line"/>
			<point x="678.862" y="180.418"/>
			<point x="543.429" y="55"/>
			<point x="382" y="55" type="curve" smooth="yes"/>
			<point x="279.468" y="55"/>
			<point x="196.48" y="99.884"/>
			<point x="125" y="194" type="curve"/>
		</contour>
	</outline>
	<anchor name="Anchor-0" x="386" y="805"/>
</glyph>
<glyph name="becyr" format="2">
	<unicode hex="0431"/>
	<advance width="668"/>
	<outline>
		<contour>
			<point x="113.466" y="418" type="line"/>
			<point x="116.593" y="589.945"/>
			<point x="199.498" y="684.059"/>
			<point x="361" y="699" type="curve" smooth="yes"/>
			<point x="588" y="720" type="line"/>
			<point x="588" y="788" type="line"/>
			<point x="355" y="768" type="line" smooth="yes"/>
			<point x="144.573" y="749.938"/>
			<point x="49.262" y="620.184"/>
			<point x="49.262" y="351.779" type="curve" smooth="yes"/>
			<point x="49.262" y="321.582" type="line" smooth="yes"/>
			<point x="49.262" y="104.269"/>
			<point x="150.112" y="-13"/>
			<point x="337" y="-13" type="curve" smooth="yes"/>
			<point x="502.071" y="-13"/>
			<point x="626" y="110.071"/>
			<point x="626" y="274" type="curve" smooth="yes"/>
			<point x="626" y="433.98"/>
			<point x="506.439" y="560"/>
			<point x="354.659" y="560" type="curve" smooth="yes"/>
			<point x="242.529" y="560"/>
			<point x="152.536" y="505.973"/>
			<point x="116.466" y="417" type="curve"/>
		</contour>
		<contour>
			<point x="335" y="55" type="curve" smooth="yes"/>
			<point x="212.545" y="55"/>
			<point x="123" y="148.347"/>
			<point x="123" y="276" type="curve" smooth="yes"/>
			<point x="123" y="398.359"/>
			<point x="215.34" y="492"/>
			<point x="336" y="492" type="curve" smooth="yes"/>
			<point x="458.715" y="492"/>
			<point x="551" y="399.286"/>
			<point x="551" y="276" type="curve" smooth="yes"/>
			<point x="551" y="150.076"/>
			<point x="458.075" y="55"/>
		</contour>
	</outline>
	<anchor name="Anchor-0" x="342" y="819"/>
</glyph>
<glyph name="vecyr" format="2">
	<unicode hex="0432"/>
	<advance width="535"/>
	<outline>
		<contour>
			<point x="63" y="0" type="line"/>
			<point x="297" y="0" type="line" smooth="yes"/>
			<point x="414.626" y="0"/>
			<point x="499" y="68.084"/>
			<point x="499" y="163" type="curve" smooth="yes"/>
			<point x="499" y="224.593"/>
			<point x="464.086" y="269.433"/>
			<point x="397" y="294" type="curve"/>
			<point x="439.246" y="312.105"/>
			<point x="471" y="358.878"/>
			<point x="471" y="403" type="curve" smooth="yes"/>
			<point x="471" y="493.19"/>
			<point x="400.375" y="547"/>
			<point x="282" y="547" type="curve" smooth="yes"/>
			<point x="63" y="547" type="line"/>
		</contour>
		<contour>
			<point x="137" y="321" type="line"/>
			<point x="137" y="480" type="line"/>
			<point x="270" y="480" type="line" smooth="yes"/>
			<point x="356.117" y="480"/>
			<point x="400" y="454.008"/>
			<point x="400" y="403" type="curve" smooth="yes"/>
			<point x="400" y="350.531"/>
			<point x="353.183" y="321"/>
			<point x="270" y="321" type="curve" smooth="yes"/>
		</contour>
		<contour>
			<point x="137" y="67" type="line"/>
			<point x="137" y="254" type="line"/>
			<point x="278" y="254" type="line" smooth="yes"/>
			<point x="375.154" y="254"/>
			<point x="424" y="223.555"/>
			<point x="424" y="163" type="curve" smooth="yes"/>
			<point x="424" y="101.041"/>
			<point x="372.229" y="67"/>
			<point x="278" y="67" type="curve" smooth="yes"/>
		</contour>
	</outline>
	<anchor name="Anchor-0" x="250" y="623"/>
</glyph>
<glyph name="gecyr" format="2">
	<unicode hex="0433"/>
	<advance width="355"/>
	<outline>
		<contour>
			<point x="63" y="0" type="line"/>
			<point x="137" y="0" type="line"/>
			<point x="137" y="480" type="line"/>
			<point x="343" y="480" type="line"/>
			<point x="343" y="547" type="line"/>
			<point x="63" y="547" type="line"/>
		</contour>
	</outline>
	<anchor name="Anchor-0" x="205" y="623"/>
</glyph>
<glyph name="decyr" format="2">
	<unicode hex="0434"/>
	<advance width="670"/>
	<outline>
		<contour>
			<point x="17" y="-126" type="line"/>
			<point x="68" y="-126" type="line"/>
			<point x="95" y="0" type="line"/>
			<point x="575" y="0" type="line"/>
			<point x="602" y="-126" type="line"/>
			<point x="653" y="-126" type="line"/>
			<point x="653" y="67" type="line"/>
			<point x="582" y="67" type="line"/>
			<point x="377" y="547" type="line"/>
			<point x="293" y="547" type="line"/>
			<point x="88" y="67" type="line"/>
			<point x="17" y="67" type="line"/>
		</contour>
		<contour>
			<point x="166" y="67" type="line"/>
			<point x="335" y="463" type="line"/>
			<point x="504" y="67" type="line"/>
		</contour>
	</outline>
	<anchor name="Anchor-0" x="335" y="623"/>
</glyph>
<glyph name="icyr" format="2">
	<unicode hex="0438"/>
	<advance width="607"/>
	<outline>
		<contour>
			<point x="63" y="0" type="line"/>
			<point x="137" y="0" type="line"/>
			<point x="470" y="442" type="line"/>
			<point x="470" y="0" type="line"/>
			<point x="544" y="0" type="line"/>
			<point x="544" y="547" type="line"/>
			<point x="470" y="547" type="line"/>
			<point x="137" y="105" type="line"/>
			<point x="137" y="547" type="line"/>
			<point x="63" y="547" type="line"/>
		</contour>
	</outline>
	<anchor name="Anchor-0" x="304" y="623"/>
</glyph>
<glyph name="emcyr" format="2">
	<unicode hex="043C"/>
	<advance width="738"/>
	<outline>
		<contour>
			<point x="63" y="0" type="line"/>
			<point x="137" y="0" type="line"/>
			<point x="137" y="466" type="line"/>
			<point x="337" y="0" type="line"/>
			<point x="401" y="0" type="line"/>
			<point x="601" y="466" type="line"/>
			<point x="601" y="0" type="line"/>
			<point x="675" y="0" type="line"/>
			<point x="675" y="547" type="line"/>
			<point x="560" y="547" type="line"/>
			<point x="369" y="103" type="line"/>
			<point x="178" y="547" type="line"/>
			<point x="63" y="547" type="line"/>
		</contour>
	</outline>
	<anchor name="Anchor-0" x="369" y="623"/>
</glyph>
<glyph name="encyr" format="2">
	<unicode hex="043D"/>
	<advance width="602"/>
	<outline>
		<contour>
			<point x="63" y="0" type="line"/>
			<point x="137" y="0" type="line"/>
			<point x="137" y="245" type="line"/>
			<point x="465" y="245" type="line"/>
			<point x="465" y="0" type="line"/>
			<point x="539" y="0" type="line"/>
			<point x="539" y="547" type="line"/>
			<point x="465" y="547" type="line"/>
			<point x="465" y="312" type="line"/>
			<point x="137" y="312" type="line"/>
			<point x="137" y="547" type="line"/>
			<point x="63" y="547" type="line"/>
		</contour>
	</outline>
	<anchor name="Anchor-0" x="301" y="623"/>
</glyph>
<glyph name="tecyr" format="2">
	<unicode hex="0442"/>
	<advance width="384"/>
	<outline>
		<contour>
			<point x="156" y="0" type="line"/>
			<point x="230" y="0" type="line"/>
			<point x="230" y="480" type="line"/>
			<point x="372" y="480" type="line"/>
			<point x="372" y="547" type="line"/>
			<point x="12" y="547" type="line"/>
			<point x="12" y="480" type="line"/>
			<point x="156" y="480" type="line"/>
		</contour>
	</outline>
	<anchor name="Anchor-0" x="192" y="623"/>
</glyph>
<glyph name="tsecyr" format="2">
	<unicode hex="0446"/>
	<advance width="622"/>
	<outline>
		<contour>
			<point x="63" y="0" type="line"/>
			<point x="535" y="0" type="line"/>
			<point x="562" y="-126" type="line"/>
			<point x="613" y="-126" type="line"/>
			<point x="613" y="67" type="line"/>
			<point x="524" y="67" type="line"/>
			<point x="524" y="547" type="line"/>
			<point x="450" y="547" type="line"/>
			<point x="450" y="67" type="line"/>
			<point x="137" y="67" type="line"/>
			<point x="137" y="547" type="line"/>
			<point x="63" y="547" type="line"/>
		</contour>
	</outline>
	<anchor name="Anchor-0" x="293" y="623"/>
</glyph>
<glyph name="shacyr" format="2">
	<unicode hex="0448"/>
	<advance width="802"/>
	<outline>
		<contour>
			<point x="63" y="0" type="line"/>
			<point x="739" y="0" type="line"/>
			<point x="739" y="547" type="line"/>
			<point x="665" y="547" type="line"/>
			<point x="665" y="67" type="line"/>
			<point x="438" y="67" type="line"/>
			<point x="438" y="547" type="line"/>
			<point x="364" y="547" type="line"/>
			<point x="364" y="67" type="line"/>
			<point x="137" y="67" type="line"/>
			<point x="137" y="547" type="line"/>
			<point x="63" y="547" type="line"/>
		</contour>
	</outline>
	<anchor name="Anchor-0" x="401" y="623"/>
</glyph>
<glyph name="ylongcyr" format="2">
	<unicode hex="044B"/>
	<advance width="679"/>
	<outline>
		<contour>
			<point x="137" y="67" type="line"/>
			<point x="137" y="261" type="line"/>
			<point x="269" y="261" type="line" smooth="yes"/>
			<point x="356.866" y="261"/>
			<point x="401" y="228.568"/>
			<point x="401" y="164" type="curve" smooth="yes"/>
			<point x="401" y="99.432"/>
			<point x="356.866" y="67"/>
			<point x="269" y="67" type="curve" smooth="yes"/>
		</contour>
		<contour>
			<point x="63" y="0" type="line"/>
			<point x="288" y="0" type="line" smooth="yes"/>
			<point x="399.378" y="0"/>
			<point x="476" y="66.84"/>
			<point x="476" y="164" type="curve" smooth="yes"/>
			<point x="476" y="261.16"/>
			<point x="399.378" y="328"/>
			<point x="288" y="328" type="curve" smooth="yes"/>
			<point x="137" y="328" type="line"/>
			<point x="137" y="547" type="line"/>
			<point x="63" y="547" type="line"/>
		</contour>
		<contour>
			<point x="542" y="0" type="line"/>
			<point x="616" y="0" type="line"/>
			<point x="616" y="547" type="line"/>
			<point x="542" y="547" type="line"/>
		</contour>
	</outline>
	<anchor name="Anchor-0" x="340" y="623"/>
</glyph>
<glyph name="softcyr" format="2">
	<unicode hex="044C"/>
	<advance width="509"/>
	<outline>
		<contour>
			<point x="137" y="67" type="line"/>
			<point x="137" y="261" type="line"/>
			<point x="279" y="261" type="line" smooth="yes"/>
			<point x="366.866" y="261"/>
			<point x="411" y="228.568"/>
			<point x="411" y="164" type="curve" smooth="yes"/>
			<point x="411" y="99.432"/>
			<point x="366.866" y="67"/>
			<point x="279" y="67" type="curve" smooth="yes"/>
		</contour>
		<contour>
			<point x="63" y="0" type="line"/>
			<point x="298" y="0" type="line" smooth="yes"/>
			<point x="409.378" y="0"/>
			<point x="486" y="66.84"/>
			<point x="486" y="164" type="curve" smooth="yes"/>
			<point x="486" y="261.16"/>
			<point x="409.378" y="328"/>
			<point x="298" y="328" type="curve" smooth="yes"/>
			<point x="137" y="328" type="line"/>
			<point x="137" y="547" type="line"/>
			<point x="63" y="547" type="line"/>
		</contour>
	</outline>
	<anchor name="Anchor-0" x="100" y="623"/>
</glyph>
<glyph name="ereversedcyr" format="2">
	<unicode hex="044D"/>
	<advance width="644"/>
	<outline>
		<contour>
			<point x="39" y="155" type="line"/>
			<point x="95.053" y="46.191"/>
			<point x="188.42" y="-13"/>
			<point x="304" y="-13" type="curve" smooth="yes"/>
			<point x="472.33" y="-13"/>
			<point x="602" y="112.319"/>
			<point x="602" y="275" type="curve" smooth="yes"/>
			<point x="602" y="434.261"/>
			<point x="472.732" y="560"/>
			<point x="309" y="560" type="curve" smooth="yes"/>
			<point x="187.003" y="560"/>
			<point x="86.785" y="495.786"/>
			<point x="39" y="387" type="curve"/>
			<point x="124" y="387" type="line"/>
			<point x="166.681" y="456.102"/>
			<point x="230.271" y="492"/>
			<point x="310" y="492" type="curve" smooth="yes"/>
			<point x="417.731" y="492"/>
			<point x="506.797" y="416.252"/>
			<point x="524" y="310" type="curve"/>
			<point x="199" y="310" type="line"/>
			<point x="199" y="243" type="line"/>
			<point x="525" y="243" type="line"/>
			<point x="510.814" y="134.578"/>
			<point x="418.537" y="55"/>
			<point x="307" y="55" type="curve" smooth="yes"/>
			<point x="233.1" y="55"/>
			<point x="166.35" y="91.476"/>
			<point x="124" y="155" type="curve"/>
		</contour>
	</outline>
	<anchor name="Anchor-0" x="307" y="623"/>
</glyph>
<glyph name="yucyr" format="2">
	<unicode hex="044E"/>
	<advance width="857"/>
	<outline>
		<contour>
			<point x="528" y="51" type="curve" smooth="yes"/>
			<point x="398.085" y="51"/>
			<point x="306" y="143.914"/>
			<point x="306" y="275" type="curve" smooth="yes"/>
			<point x="306" y="401.86"/>
			<point x="398.862" y="496"/>
			<point x="524" y="496" type="curve" smooth="yes"/>
			<point x="647.633" y="496"/>
			<point x="739" y="400.384"/>
			<point x="739" y="271" type="curve" smooth="yes"/>
			<point x="739" y="142.877"/>
			<point x="650.882" y="51"/>
		</contour>
		<contour>
			<point x="63" y="0" type="line"/>
			<point x="137" y="0" type="line"/>
			<point x="137" y="245" type="line"/>
			<point x="232" y="245" type="line"/>
			<point x="247.29" y="90.057"/>
			<point x="369.057" y="-17"/>
			<point x="530" y="-17" type="curve" smooth="yes"/>
			<point x="693.851" y="-17"/>
			<point x="815" y="105.849"/>
			<point x="815" y="272" type="curve" smooth="yes"/>
			<point x="815" y="440.789"/>
			<point x="692.211" y="564"/>
			<point x="524" y="564" type="curve" smooth="yes"/>
			<point x="371.492" y="564"/>
			<point x="249.168" y="458.433"/>
			<point x="232" y="312" type="curve"/>
			<point x="137" y="312" type="line"/>
			<point x="137" y="547" type="line"/>
			<point x="63" y="547" type="line"/>
		</contour>
	</outline>
	<anchor name="Anchor-0" x="474" y="627"/>
</glyph>
<glyph name="gjecyr" format="2">
	<unicode hex="0453"/>
	<advance width="355"/>
	<outline>
		<contour>
			<point x="141" y="610" type="line"/>
			<point x="334" y="724" type="line"/>
			<point x="300" y="782" type="line"/>
			<point x="107" y="666" type="line"/>
		</contour>
		<contour>
			<point x="63" y="0" type="line"/>
			<point x="137" y="0" type="line"/>
			<point x="137" y="480" type="line"/>
			<point x="343" y="480" type="line"/>
			<point x="343" y="547" type="line"/>
			<point x="63" y="547" type="line"/>
		</contour>
	</outline>
	<anchor name="Anchor-0" x="205" y="805"/>
</glyph>
<glyph name="ljecyr" format="2">
	<unicode hex="0459"/>
	<advance width="850"/>
	<outline>
		<contour>
			<point x="5" y="0" type="line"/>
			<point x="92" y="0" type="line"/>
			<point x="404" y="452" type="line"/>
			<point x="404" y="0" type="line"/>
			<point x="639" y="0" type="line" smooth="yes"/>
			<point x="750.378" y="0"/>
			<point x="827" y="66.84"/>
			<point x="827" y="164" type="curve" smooth="yes"/>
			<point x="827" y="261.16"/>
			<point x="750.378" y="328"/>
			<point x="639" y="328" type="curve" smooth="yes"/>
			<point x="478" y="328" type="line"/>
			<point x="478" y="547" type="line"/>
			<point x="383" y="547" type="line"/>
		</contour>
		<contour>
			<point x="478" y="67" type="line"/>
			<point x="478" y="261" type="line"/>
			<point x="620" y="261" type="line" smooth="yes"/>
			<point x="707.866" y="261"/>
			<point x="752" y="228.568"/>
			<point x="752" y="164" type="curve" smooth="yes"/>
			<point x="752" y="99.432"/>
			<point x="707.866" y="67"/>
			<point x="620" y="67" type="curve" smooth="yes"/>
		</contour>
	</outline>
	<anchor name="Anchor-0" x="437" y="623"/>
</glyph>
<glyph name="njecyr" format="2">
	<unicode hex="045A"/>
	<advance width="881"/>
	<outline>
		<contour>
			<point x="63" y="0" type="line"/>
			<point x="137" y="0" type="line"/>
			<point x="137" y="261" type="line"/>
			<point x="435" y="261" type="line"/>
			<point x="435" y="0" type="line"/>
			<point x="670" y="0" type="line" smooth="yes"/>
			<point x="781.378" y="0"/>
			<point x="858" y="66.84"/>
			<point x="858" y="164" type="curve" smooth="yes"/>
			<point x="858" y="261.16"/>
			<point x="781.378" y="328"/>
			<point x="670" y="328" type="curve" smooth="yes"/>
			<point x="509" y="328" type="line"/>
			<point x="509" y="547" type="line"/>
			<point x="435" y="547" type="line"/>
			<point x="435" y="328" type="line"/>
			<point x="137" y="328" type="line"/>
			<point x="137" y="547" type="line"/>
			<point x="63" y="547" type="line"/>
		</contour>
		<contour>
			<point x="509" y="67" type="line"/>
			<point x="509" y="261" type="line"/>
			<point x="651" y="261" type="line" smooth="yes"/>
			<point x="738.866" y="261"/>
			<point x="783" y="228.568"/>
			<point x="783" y="164" type="curve" smooth="yes"/>
			<point x="783" y="99.432"/>
			<point x="738.866" y="67"/>
			<point x="651" y="67" type="curve" smooth="yes"/>
		</contour>
	</outline>
	<anchor name="Anchor-0" x="460" y="623"/>
</glyph>
<glyph name="tshecyr" format="2">
	<unicode hex="045B"/>
	<advance width="662"/>
	<outline>
		<contour>
			<point x="12" y="641" type="line"/>
			<point x="12" y="574" type="line"/>
			<point x="396" y="574" type="line"/>
			<point x="396" y="641" type="line"/>
		</contour>
		<contour>
			<point x="134" y="0" type="line"/>
			<point x="208" y="0" type="line"/>
			<point x="208" y="219.99" type="line" smooth="yes"/>
			<point x="208" y="341.199"/>
			<point x="269.574" y="411.99"/>
			<point x="375" y="411.99" type="curve" smooth="yes"/>
			<point x="482.721" y="411.99"/>
			<point x="544" y="340.196"/>
			<point x="544" y="213.99" type="curve" smooth="yes"/>
			<point x="544" y="0" type="line"/>
			<point x="618" y="0" type="line"/>
			<point x="618" y="213.99" type="line" smooth="yes"/>
			<point x="618" y="386.287"/>
			<point x="534.512" y="479.99"/>
			<point x="381" y="479.99" type="curve" smooth="yes"/>
			<point x="306.893" y="479.99"/>
			<point x="244.947" y="449.913"/>
			<point x="208" y="395.99" type="curve"/>
			<point x="208" y="739" type="line"/>
			<point x="134" y="739" type="line"/>
		</contour>
	</outline>
	<anchor name="Anchor-0" x="345" y="805"/>
</glyph>
<glyph name="Yatcyr" format="2">
	<unicode hex="0462"/>
	<advance width="691"/>
	<outline>
		<contour>
			<point x="261" y="67" type="line"/>
			<point x="261" y="358" type="line"/>
			<point x="394" y="358" type="line" smooth="yes"/>
			<point x="460.875" y="358"/>
			<point x="502.387" y="350.78"/>
			<point x="532" y="334" type="curve"/>
			<point x="569.784" y="314.114"/>
			<point x="591" y="271.322"/>
			<point x="591" y="215" type="curve" smooth="yes"/>
			<point x="591" y="146.479"/>
			<point x="561.54" y="98.106"/>
			<point x="510" y="82" type="curve" smooth="yes"/>
			<point x="476.788" y="71.621"/>
			<point x="431.5" y="67"/>
			<point x="363" y="67" type="curve" smooth="yes"/>
		</contour>
		<contour>
			<point x="187" y="0" type="line"/>
			<point x="388" y="0" type="line" smooth="yes"/>
			<point x="478.478" y="0"/>
			<point x="533.355" y="10.861"/>
			<point x="580" y="38" type="curve" smooth="yes"/>
			<point x="635.055" y="70.032"/>
			<point x="666" y="134.081"/>
			<point x="666" y="216" type="curve" smooth="yes"/>
			<point x="666" y="289.622"/>
			<point x="640.387" y="348.318"/>
			<point x="594" y="381" type="curve" smooth="yes"/>
			<point x="548.975" y="412.722"/>
			<point x="494.841" y="425"/>
			<point x="400" y="425" type="curve" smooth="yes"/>
			<point x="261" y="425" type="line"/>
			<point x="261" y="559" type="line"/>
			<point x="466" y="559" type="line"/>
			<point x="466" y="626" type="line"/>
			<point x="261" y="626" type="line"/>
			<point x="261" y="739" type="line"/>
			<point x="187" y="739" type="line"/>
			<point x="187" y="626" type="line"/>
			<point x="12" y="626" type="line"/>
			<point x="12" y="559" type="line"/>
			<point x="187" y="559" type="line"/>
		</contour>
	</outline>
	<anchor name="Anchor-0" x="224" y="805"/>
</glyph>
<glyph name="yatcyr" format="2">
	<unicode hex="0463"/>
	<advance width="593"/>
	<outline>
		<contour>
			<point x="147" y="0" type="line"/>
			<point x="382" y="0" type="line" smooth="yes"/>
			<point x="493.378" y="0"/>
			<point x="570" y="66.84"/>
			<point x="570" y="164" type="curve" smooth="yes"/>
			<point x="570" y="261.16"/>
			<point x="493.378" y="328"/>
			<point x="382" y="328" type="curve" smooth="yes"/>
			<point x="221" y="328" type="line"/>
			<point x="221" y="480" type="line"/>
			<point x="376" y="480" type="line"/>
			<point x="376" y="547" type="line"/>
			<point x="221" y="547" type="line"/>
			<point x="221" y="739" type="line"/>
			<point x="147" y="739" type="line"/>
			<point x="147" y="547" type="line"/>
			<point x="12" y="547" type="line"/>
			<point x="12" y="480" type="line"/>
			<point x="147" y="480" type="line"/>
		</contour>
		<contour>
			<point x="221" y="67" type="line"/>
			<point x="221" y="261" type="line"/>
			<point x="363" y="261" type="line" smooth="yes"/>
			<point x="450.866" y="261"/>
			<point x="495" y="228.568"/>
			<point x="495" y="164" type="curve" smooth="yes"/>
			<point x="495" y="99.432"/>
			<point x="450.866" y="67"/>
			<point x="363" y="67" type="curve" smooth="yes"/>
		</contour>
	</outline>
	<anchor name="Anchor-0" x="184" y="805"/>
</glyph>
<glyph name="Eiotifiedcyr" format="2">
	<unicode hex="0464"/>
	<advance width="995"/>
	<outline>
		<contour>
			<point x="76" y="0" type="line"/>
			<point x="150" y="0" type="line"/>
			<point x="150" y="343" type="line"/>
			<point x="220" y="343" type="line"/>
			<point x="232.093" y="137.426"/>
			<point x="395.618" y="-13"/>
			<point x="607" y="-13" type="curve" smooth="yes"/>
			<point x="756.85" y="-13"/>
			<point x="870.926" y="56.863"/>
			<point x="945" y="194" type="curve"/>
			<point x="863" y="194" type="line"/>
			<point x="791.52" y="99.884"/>
			<point x="708.532" y="55"/>
			<point x="606" y="55" type="curve" smooth="yes"/>
			<point x="444.571" y="55"/>
			<point x="309.138" y="180.418"/>
			<point x="295" y="343" type="curve"/>
			<point x="764" y="343" type="line"/>
			<point x="764" y="410" type="line"/>
			<point x="296" y="410" type="line"/>
			<point x="315.228" y="569.895"/>
			<point x="443.909" y="684"/>
			<point x="605" y="684" type="curve" smooth="yes"/>
			<point x="717.369" y="684"/>
			<point x="801.031" y="638.875"/>
			<point x="859" y="547" type="curve"/>
			<point x="942" y="547" type="line"/>
			<point x="885.118" y="673.738"/>
			<point x="755.317" y="752"/>
			<point x="602" y="752" type="curve" smooth="yes"/>
			<point x="398.654" y="752"/>
			<point x="241.164" y="610.631"/>
			<point x="221" y="410" type="curve"/>
			<point x="150" y="410" type="line"/>
			<point x="150" y="739" type="line"/>
			<point x="76" y="739" type="line"/>
		</contour>
	</outline>
</glyph>
<glyph name="eiotifiedcyr" format="2">
	<unicode hex="0465"/>
	<advance width="821"/>
	<outline>
		<contour>
			<point x="63" y="0" type="line"/>
			<point x="137" y="0" type="line"/>
			<point x="137" y="243" type="line"/>
			<point x="200" y="243" type="line"/>
			<point x="215.098" y="95.037"/>
			<point x="340.016" y="-13"/>
			<point x="496" y="-13" type="curve" smooth="yes"/>
			<point x="611.58" y="-13"/>
			<point x="704.947" y="46.191"/>
			<point x="761" y="155" type="curve"/>
			<point x="676" y="155" type="line"/>
			<point x="633.65" y="91.476"/>
			<point x="566.9" y="55"/>
			<point x="493" y="55" type="curve" smooth="yes"/>
			<point x="381.463" y="55"/>
			<point x="289.186" y="134.578"/>
			<point x="275" y="243" type="curve"/>
			<point x="601" y="243" type="line"/>
			<point x="601" y="310" type="line"/>
			<point x="276" y="310" type="line"/>
			<point x="293.203" y="416.252"/>
			<point x="382.269" y="492"/>
			<point x="490" y="492" type="curve" smooth="yes"/>
			<point x="569.729" y="492"/>
			<point x="633.319" y="456.102"/>
			<point x="676" y="387" type="curve"/>
			<point x="761" y="387" type="line"/>
			<point x="713.215" y="495.786"/>
			<point x="612.997" y="560"/>
			<point x="491" y="560" type="curve" smooth="yes"/>
			<point x="340.856" y="560"/>
			<point x="217.213" y="453.777"/>
			<point x="200" y="310" type="curve"/>
			<point x="137" y="310" type="line"/>
			<point x="137" y="547" type="line"/>
			<point x="63" y="547" type="line"/>
		</contour>
	</outline>
</glyph>
<glyph name="yusbigcyr" format="2">
	<unicode hex="046B"/>
	<advance width="732"/>
	<outline>
		<contour>
			<point x="113" y="0" type="line"/>
			<point x="113" y="104.639"/>
			<point x="227.189" y="222"/>
			<point x="329" y="222" type="curve"/>
			<point x="329" y="0" type="line"/>
			<point x="403" y="0" type="line"/>
			<point x="403" y="222" type="line"/>
			<point x="509.676" y="222"/>
			<point x="619" y="109.639"/>
			<point x="619" y="0" type="curve"/>
			<point x="693" y="0" type="line"/>
			<point x="693" y="141.341"/>
			<point x="566.263" y="281"/>
			<point x="438" y="281" type="curve"/>
			<point x="623" y="491" type="line"/>
			<point x="623" y="547" type="line"/>
			<point x="109" y="547" type="line"/>
			<point x="109" y="491" type="line"/>
			<point x="294" y="281" type="line"/>
			<point x="172.589" y="281"/>
			<point x="39" y="133.79"/>
			<point x="39" y="0" type="curve"/>
		</contour>
		<contour>
			<point x="366" y="299" type="line"/>
			<point x="211" y="480" type="line"/>
			<point x="521" y="480" type="line"/>
		</contour>
	</outline>
	<anchor name="Anchor-0" x="366" y="623"/>
</glyph>
<glyph name="Yusbigiotifiedcyr" format="2">
	<unicode hex="046C"/>
	<advance width="1055"/>
	<outline>
		<contour>
			<point x="76" y="0" type="line"/>
			<point x="150" y="0" type="line"/>
			<point x="150" y="320" type="line"/>
			<point x="381" y="320" type="line"/>
			<point x="288.051" y="290.22"/>
			<point x="200" y="134.55"/>
			<point x="200" y="0" type="curve"/>
			<point x="274" y="0" type="line"/>
			<point x="274" y="163.226"/>
			<point x="410.688" y="320"/>
			<point x="553" y="320" type="curve"/>
			<point x="553" y="0" type="line"/>
			<point x="627" y="0" type="line"/>
			<point x="627" y="320" type="line"/>
			<point x="779.313" y="320"/>
			<point x="906" y="174.695"/>
			<point x="906" y="0" type="curve"/>
			<point x="980" y="0" type="line"/>
			<point x="980" y="212"/>
			<point x="836.667" y="384"/>
			<point x="660" y="384" type="curve"/>
			<point x="904" y="672" type="line"/>
			<point x="904" y="739" type="line"/>
			<point x="276" y="739" type="line"/>
			<point x="276" y="672" type="line"/>
			<point x="517" y="387" type="line"/>
			<point x="150" y="387" type="line"/>
			<point x="150" y="739" type="line"/>
			<point x="76" y="739" type="line"/>
		</contour>
		<contour>
			<point x="590" y="405" type="line"/>
			<point x="367" y="672" type="line"/>
			<point x="813" y="672" type="line"/>
		</contour>
	</outline>
	<anchor name="Anchor-0" x="587" y="805"/>
</glyph>
<glyph name="yusbigiotifiedcyr" format="2">
	<unicode hex="046D"/>
	<advance width="898"/>
	<outline>
		<contour>
			<point x="63" y="0" type="line"/>
			<point x="137" y="0" type="line"/>
			<point x="137" y="245" type="line"/>
			<point x="362" y="245" type="line"/>
			<point x="264.154" y="220.34"/>
			<point x="179" y="106.336"/>
			<point x="179" y="0" type="curve"/>
			<point x="253" y="0" type="line"/>
			<point x="253" y="104.639"/>
			<point x="367.189" y="222"/>
			<point x="469" y="222" type="curve"/>
			<point x="469" y="0" type="line"/>
			<point x="543" y="0" type="line"/>
			<point x="543" y="222" type="line"/>
			<point x="649.676" y="222"/>
			<point x="759" y="109.639"/>
			<point x="759" y="0" type="curve"/>
			<point x="833" y="0" type="line"/>
			<point x="833" y="141.341"/>
			<point x="706.263" y="281"/>
			<point x="578" y="281" type="curve"/>
			<point x="763" y="491" type="line"/>
			<point x="763" y="547" type="line"/>
			<point x="249" y="547" type="line"/>
			<point x="249" y="491" type="line"/>
			<point x="407" y="312" type="line"/>
			<point x="137" y="312" type="line"/>
			<point x="137" y="547" type="line"/>
			<point x="63" y="547" type="line"/>
		</contour>
		<contour>
			<point x="506" y="299" type="line"/>
			<point x="351" y="480" type="line"/>
			<point x="661" y="480" type="line"/>
		</contour>
	</outline>
</glyph>
<glyph name="Psicyr" format="2">
	<unicode hex="0470"/>
	<advance width="703"/>
	<outline>
		<contour>
			<point x="317" y="0" type="line"/>
			<point x="391" y="0" type="line"/>
			<point x="391" y="247" type="line"/>
			<point x="553.993" y="260.664"/>
			<point x="643" y="362.74"/>
			<point x="643" y="536" type="curve" smooth="yes"/>
			<point x="643" y="739" type="line"/>
			<point x="569" y="739" type="line"/>
			<point x="569" y="536" type="line" smooth="yes"/>
			<point x="569" y="402.781"/>
			<point x="508.845" y="328.094"/>
			<point x="391" y="315" type="curve"/>
			<point x="391" y="739" type="line"/>
			<point x="317" y="739" type="line"/>
			<point x="317" y="315" type="line"/>
			<point x="196.427" y="326.216"/>
			<point x="134" y="401.607"/>
			<point x="134" y="536" type="curve" smooth="yes"/>
			<point x="134" y="739" type="line"/>
			<point x="60" y="739" type="line"/>
			<point x="60" y="536" type="line" smooth="yes"/>
			<point x="60" y="361.586"/>
			<point x="151.196" y="258.679"/>
			<point x="317" y="246" type="curve"/>
		</contour>
	</outline>
</glyph>
<glyph name="psicyr" format="2">
	<unicode hex="0471"/>
	<advance width="722"/>
	<outline>
		<contour>
			<point x="320" y="-192" type="line"/>
			<point x="394" y="-192" type="line"/>
			<point x="394" y="-12" type="line"/>
			<point x="580.55" y="0.764"/>
			<point x="662" y="96.194"/>
			<point x="662" y="302" type="curve" smooth="yes"/>
			<point x="662" y="378.462"/>
			<point x="631.325" y="494.082"/>
			<point x="597" y="547" type="curve"/>
			<point x="518" y="547" type="line"/>
			<point x="555.319" y="495.133"/>
			<point x="588" y="380.75"/>
			<point x="588" y="302" type="curve" smooth="yes"/>
			<point x="588" y="142.309"/>
			<point x="528.793" y="67.233"/>
			<point x="394" y="56" type="curve"/>
			<point x="394" y="547" type="line"/>
			<point x="320" y="547" type="line"/>
			<point x="320" y="56" type="line"/>
			<point x="195.209" y="66.479"/>
			<point x="134" y="130.978"/>
			<point x="134" y="252" type="curve" smooth="yes"/>
			<point x="134" y="547" type="line"/>
			<point x="60" y="547" type="line"/>
			<point x="60" y="252" type="line" smooth="yes"/>
			<point x="60" y="88.662"/>
			<point x="149.485" y="-2.2"/>
			<point x="320" y="-12" type="curve"/>
		</contour>
	</outline>
</glyph>
<glyph name="Fitacyr" format="2">
	<unicode hex="0472"/>
	<advance width="869"/>
	<outline>
		<contour>
			<point x="44" y="369" type="curve" smooth="yes"/>
			<point x="44" y="159.963"/>
			<point x="221.038" y="-13"/>
			<point x="435" y="-13" type="curve" smooth="yes"/>
			<point x="649.199" y="-13"/>
			<point x="825" y="159.195"/>
			<point x="825" y="369" type="curve" smooth="yes"/>
			<point x="825" y="577.457"/>
			<point x="649.546" y="752"/>
			<point x="440" y="752" type="curve" smooth="yes"/>
			<point x="219.885" y="752"/>
			<point x="44" y="581.889"/>
		</contour>
		<contour>
			<point x="749" y="347" type="line"/>
			<point x="737.903" y="184.575"/>
			<point x="598.565" y="55"/>
			<point x="435" y="55" type="curve" smooth="yes"/>
			<point x="270.12" y="55"/>
			<point x="131.075" y="183.892"/>
			<point x="120" y="347" type="curve"/>
		</contour>
		<contour>
			<point x="122" y="414" type="line"/>
			<point x="145.413" y="566.691"/>
			<point x="279.667" y="684"/>
			<point x="431" y="684" type="curve" smooth="yes"/>
			<point x="589.533" y="684"/>
			<point x="723.636" y="569.418"/>
			<point x="747" y="414" type="curve"/>
		</contour>
	</outline>
</glyph>
<glyph name="fitacyr" format="2">
	<unicode hex="0473"/>
	<advance width="655"/>
	<outline>
		<contour>
			<point x="42" y="273" type="curve" smooth="yes"/>
			<point x="42" y="109.216"/>
			<point x="166.78" y="-13"/>
			<point x="334" y="-13" type="curve" smooth="yes"/>
			<point x="494.774" y="-13"/>
			<point x="613" y="107.769"/>
			<point x="613" y="272" type="curve" smooth="yes"/>
			<point x="613" y="437.005"/>
			<point x="492.995" y="560"/>
			<point x="332" y="560" type="curve" smooth="yes"/>
			<point x="164.132" y="560"/>
			<point x="42" y="439.131"/>
		</contour>
		<contour>
			<point x="120" y="312" type="line"/>
			<point x="137.316" y="418.951"/>
			<point x="220.917" y="492"/>
			<point x="326" y="492" type="curve" smooth="yes"/>
			<point x="434.619" y="492"/>
			<point x="517.781" y="420.377"/>
			<point x="535" y="312" type="curve"/>
		</contour>
		<contour>
			<point x="537" y="245" type="line"/>
			<point x="525.892" y="131.9"/>
			<point x="442.921" y="55"/>
			<point x="332" y="55" type="curve" smooth="yes"/>
			<point x="218.489" y="55"/>
			<point x="131.173" y="132.524"/>
			<point x="118" y="245" type="curve"/>
		</contour>
	</outline>
</glyph>
<glyph name="Izhitsacyr" format="2">
	<unicode hex="0474"/>
	<advance width="759"/>
	<outline>
		<contour>
			<point x="334" y="0" type="line"/>
			<point x="406" y="0" type="line"/>
			<point x="660" y="614" type="line"/>
			<point x="672" y="641"/>
			<point x="685" y="672"/>
			<point x="714" y="672" type="curve" smooth="yes"/>
			<point x="729" y="672" type="line"/>
			<point x="729" y="739" type="line"/>
			<point x="690" y="739" type="line" smooth="yes"/>
			<point x="630" y="739"/>
			<point x="609" y="683"/>
			<point x="591" y="638" type="curve" smooth="yes"/>
			<point x="371" y="92" type="line"/>
			<point x="111" y="739" type="line"/>
			<point x="30" y="739" type="line"/>
		</contour>
	</outline>
	<anchor name="Anchor-0" x="371" y="805"/>
</glyph>
<glyph name="izhitsagravedblcyr" format="2">
	<unicode hex="0477"/>
	<advance width="604"/>
	<outline>
		<contour>
			<point x="240" y="728" type="line"/>
			<point x="437" y="620" type="line"/>
			<point x="470" y="676" type="line"/>
			<point x="272" y="786" type="line"/>
		</contour>
		<contour>
			<point x="30" y="728" type="line"/>
			<point x="227" y="620" type="line"/>
			<point x="260" y="676" type="line"/>
			<point x="62" y="786" type="line"/>
		</contour>
		<contour>
			<point x="290" y="0" type="line"/>
			<point x="368" y="0" type="line"/>
			<point x="546" y="424" type="line" smooth="yes"/>
			<point x="561.508" y="460.94"/>
			<point x="577.845" y="480"/>
			<point x="594" y="480" type="curve" smooth="yes"/>
			<point x="604" y="480" type="line"/>
			<point x="604" y="547" type="line"/>
			<point x="590" y="547" type="line" smooth="yes"/>
			<point x="536.792" y="547"/>
			<point x="513.751" y="525.62"/>
			<point x="479" y="444" type="curve" smooth="yes"/>
			<point x="327" y="87" type="line"/>
			<point x="135" y="547" type="line"/>
			<point x="60" y="547" type="line"/>
		</contour>
	</outline>
</glyph>
<glyph name="Omegaroundcyr" format="2">
	<unicode hex="047A"/>
	<advance width="869"/>
	<outline>
		<contour>
			<point x="348" y="-3" type="curve"/>
			<point x="362.429" y="-39.071"/>
			<point x="397.125" y="-63"/>
			<point x="435" y="-63" type="curve" smooth="yes"/>
			<point x="473.8" y="-63"/>
			<point x="507.933" y="-39.187"/>
			<point x="521" y="-3" type="curve"/>
			<point x="697.637" y="35.799"/>
			<point x="825" y="191.651"/>
			<point x="825" y="369" type="curve" smooth="yes"/>
			<point x="825" y="547.16"/>
			<point x="694.811" y="706.185"/>
			<point x="518" y="744" type="curve"/>
			<point x="504.82" y="781.514"/>
			<point x="470.46" y="806"/>
			<point x="431" y="806" type="curve" smooth="yes"/>
			<point x="390.879" y="806"/>
			<point x="354.269" y="778.851"/>
			<point x="342" y="740" type="curve"/>
			<point x="166.59" y="698.187"/>
			<point x="44" y="545.567"/>
			<point x="44" y="369" type="curve" smooth="yes"/>
			<point x="44" y="192.651"/>
			<point x="171.342" y="36.825"/>
		</contour>
		<contour>
			<point x="347" y="67" type="curve"/>
			<point x="212.357" y="107.085"/>
			<point x="119" y="230.741"/>
			<point x="119" y="369" type="curve" smooth="yes"/>
			<point x="119" y="505.69"/>
			<point x="212.799" y="631.032"/>
			<point x="345" y="671" type="curve"/>
			<point x="360.692" y="636.477"/>
			<point x="394.605" y="614"/>
			<point x="431" y="614" type="curve" smooth="yes"/>
			<point x="469.008" y="614"/>
			<point x="502.625" y="637.063"/>
			<point x="517" y="673" type="curve"/>
			<point x="655.036" y="635.168"/>
			<point x="750" y="510.858"/>
			<point x="750" y="368" type="curve" smooth="yes"/>
			<point x="750" y="230.529"/>
			<point x="656.451" y="107.027"/>
			<point x="522" y="67" type="curve"/>
			<point x="508.82" y="104.514"/>
			<point x="474.46" y="129"/>
			<point x="435" y="129" type="curve" smooth="yes"/>
			<point x="396.452" y="129"/>
			<point x="361.548" y="104.409"/>
		</contour>
	</outline>
</glyph>
<glyph name="omegatitlocyr" format="2">
	<unicode hex="047D"/>
	<advance width="860"/>
	<outline>
		<contour>
			<point x="393" y="277" type="line"/>
			<point x="393" y="191" type="line" smooth="yes"/>
			<point x="393" y="123.61"/>
			<point x="320.922" y="57"/>
			<point x="248" y="57" type="curve" smooth="yes"/>
			<point x="176.153" y="57"/>
			<point x="136" y="117.946"/>
			<point x="136" y="227" type="curve" smooth="yes"/>
			<point x="136" y="365" type="line" smooth="yes"/>
			<point x="136" y="429.733"/>
			<point x="168.783" y="480"/>
			<point x="211" y="480" type="curve" smooth="yes"/>
			<point x="281" y="480" type="line"/>
			<point x="281" y="547" type="line"/>
			<point x="201" y="547" type="line" smooth="yes"/>
			<point x="114.566" y="547"/>
			<point x="60" y="476.567"/>
			<point x="60" y="365" type="curve" smooth="yes"/>
			<point x="60" y="227" type="line" smooth="yes"/>
			<point x="60" y="74.011"/>
			<point x="128.158" y="-13"/>
			<point x="248" y="-13" type="curve" smooth="yes"/>
			<point x="317.374" y="-13"/>
			<point x="386.831" y="33.941"/>
			<point x="430" y="110" type="curve"/>
			<point x="468.239" y="31.397"/>
			<point x="524.187" y="-13"/>
			<point x="585" y="-13" type="curve" smooth="yes"/>
			<point x="731.302" y="-13"/>
			<point x="800" y="63.686"/>
			<point x="800" y="227" type="curve" smooth="yes"/>
			<point x="800" y="365" type="line" smooth="yes"/>
			<point x="800" y="488.539"/>
			<point x="754.709" y="547"/>
			<point x="659" y="547" type="curve" smooth="yes"/>
			<point x="579" y="547" type="line"/>
			<point x="579" y="480" type="line"/>
			<point x="649" y="480" type="line" smooth="yes"/>
			<point x="695.239" y="480"/>
			<point x="724" y="435.9"/>
			<point x="724" y="365" type="curve" smooth="yes"/>
			<point x="724" y="227" type="line" smooth="yes"/>
			<point x="724" y="103.96"/>
			<point x="685.603" y="57"/>
			<point x="585" y="57" type="curve" smooth="yes"/>
			<point x="538.261" y="57"/>
			<point x="467" y="137.924"/>
			<point x="467" y="191" type="curve" smooth="yes"/>
			<point x="467" y="277" type="line"/>
		</contour>
		<contour>
			<point x="273" y="591" type="line"/>
			<point x="334" y="591" type="line"/>
			<point x="334" y="611" type="line" smooth="yes"/>
			<point x="334" y="662.806"/>
			<point x="360.512" y="693"/>
			<point x="406" y="693" type="curve" smooth="yes"/>
			<point x="456" y="693"/>
			<point x="526" y="591"/>
			<point x="629" y="591" type="curve" smooth="yes"/>
			<point x="668" y="591" type="line"/>
			<point x="668" y="655" type="line"/>
			<point x="630" y="655" type="line" smooth="yes"/>
			<point x="543" y="655"/>
			<point x="501" y="756"/>
			<point x="394" y="756" type="curve" smooth="yes"/>
			<point x="324.521" y="756"/>
			<point x="273" y="695.963"/>
			<point x="273" y="615" type="curve" smooth="yes"/>
		</contour>
		<contour>
			<point x="352" y="404" type="curve"/>
			<point x="416" y="404" type="line"/>
			<point x="458.88" y="442.286"/>
			<point x="487" y="494.169"/>
			<point x="487" y="535" type="curve" smooth="yes"/>
			<point x="487" y="548" type="line" smooth="yes"/>
			<point x="487" y="578.392"/>
			<point x="467.633" y="597"/>
			<point x="436" y="597" type="curve" smooth="yes"/>
			<point x="428" y="597" type="line" smooth="yes"/>
			<point x="396.833" y="597"/>
			<point x="376" y="577.769"/>
			<point x="376" y="549" type="curve" smooth="yes"/>
			<point x="376" y="529.25"/>
			<point x="389.821" y="510"/>
			<point x="404" y="510" type="curve" smooth="yes"/>
			<point x="418" y="510" type="line"/>
			<point x="418" y="481.5"/>
			<point x="394.75" y="444.159"/>
		</contour>
	</outline>
</glyph>
<glyph name="palatcombcyr" format="2">
	<unicode hex="0484"/>
	<outline>
		<contour>
			<point x="-445" y="800" type="line"/>
			<point x="-384" y="800" type="line"/>
			<point x="-384" y="820" type="line" smooth="yes"/>
			<point x="-384" y="871.806"/>
			<point x="-357.488" y="902"/>
			<point x="-312" y="902" type="curve" smooth="yes"/>
			<point x="-262" y="902"/>
			<point x="-192" y="800"/>
			<point x="-89" y="800" type="curve" smooth="yes"/>
			<point x="-50" y="800" type="line"/>
			<point x="-50" y="864" type="line"/>
			<point x="-88" y="864" type="line" smooth="yes"/>
			<point x="-175" y="864"/>
			<point x="-217" y="965"/>
			<point x="-324" y="965" type="curve" smooth="yes"/>
			<point x="-393.479" y="965"/>
			<point x="-445" y="904.963"/>
			<point x="-445" y="824" type="curve" smooth="yes"/>
		</contour>
	</outline>
</glyph>
<glyph name="psilicombcyr" format="2">
	<unicode hex="0486"/>
	<outline>
		<contour>
			<point x="-165" y="613" type="line"/>
			<point x="-122.12" y="651.286"/>
			<point x="-94" y="703.169"/>
			<point x="-94" y="744" type="curve" smooth="yes"/>
			<point x="-94" y="757" type="line" smooth="yes"/>
			<point x="-94" y="787.392"/>
			<point x="-113.367" y="806"/>
			<point x="-145" y="806" type="curve" smooth="yes"/>
			<point x="-153" y="806" type="line" smooth="yes"/>
			<point x="-184.667" y="806"/>
			<point x="-205" y="787.231"/>
			<point x="-205" y="758" type="curve" smooth="yes"/>
			<point x="-205" y="738.25"/>
			<point x="-191.179" y="719"/>
			<point x="-177" y="719" type="curve" smooth="yes"/>
			<point x="-174.304" y="719"/>
			<point x="-165.603" y="719"/>
			<point x="-163" y="719" type="curve"/>
			<point x="-163" y="690.5"/>
			<point x="-186.25" y="653.159"/>
			<point x="-229" y="613" type="curve"/>
		</contour>
	</outline>
</glyph>
<glyph name="guilsinglleft" format="2">
	<unicode hex="2039"/>
	<advance width="251"/>
	<outline>
		<contour>
			<point x="152" y="99" type="line"/>
			<point x="211" y="132" type="line"/>
			<point x="118" y="300" type="line"/>
			<point x="211" y="467" type="line"/>
			<point x="152" y="499" type="line"/>
			<point x="40.147" y="300.618" type="line"/>
			<point x="40" y="297" type="line"/>
		</contour>
	</outline>
</glyph>
<glyph name="Euro" format="2">
	<unicode hex="20AC"/>
	<advance width="870"/>
	<outline>
		<contour>
			<point x="46" y="263" type="line"/>
			<point x="172" y="263" type="line"/>
			<point x="217.96" y="96.521"/>
			<point x="366.766" y="-13"/>
			<point x="547" y="-13" type="curve" smooth="yes"/>
			<point x="639.675" y="-13"/>
			<point x="718.775" y="13.813"/>
			<point x="783" y="67" type="curve"/>
			<point x="783" y="169" type="line"/>
			<point x="721.504" y="96.116"/>
			<point x="636.026" y="55"/>
			<point x="546" y="55" type="curve" smooth="yes"/>
			<point x="414.986" y="55"/>
			<point x="297.381" y="138.204"/>
			<point x="252" y="263" type="curve"/>
			<point x="669" y="263" type="line"/>
			<point x="699" y="330" type="line"/>
			<point x="236" y="330" type="line"/>
			<point x="234.5" y="349.5"/>
			<point x="234" y="359.5"/>
			<point x="234" y="370" type="curve" smooth="yes"/>
			<point x="234" y="383.5"/>
			<point x="234.25" y="390.25"/>
			<point x="235" y="397" type="curve"/>
			<point x="728" y="397" type="line"/>
			<point x="758" y="464" type="line"/>
			<point x="247" y="464" type="line"/>
			<point x="285.813" y="596.781"/>
			<point x="403.955" y="684"/>
			<point x="545" y="684" type="curve" smooth="yes"/>
			<point x="655.647" y="684"/>
			<point x="737.71" y="640.516"/>
			<point x="796" y="551" type="curve"/>
			<point x="830" y="628" type="line"/>
			<point x="760.847" y="707.323"/>
			<point x="657.081" y="752"/>
			<point x="542" y="752" type="curve" smooth="yes"/>
			<point x="358.708" y="752"/>
			<point x="210.826" y="637.51"/>
			<point x="170" y="464" type="curve"/>
			<point x="76" y="464" type="line"/>
			<point x="46" y="397" type="line"/>
			<point x="160" y="397" type="line"/>
			<point x="159" y="387"/>
			<point x="159" y="377"/>
			<point x="159" y="367" type="curve" smooth="yes"/>
			<point x="159" y="354"/>
			<point x="159" y="342"/>
			<point x="161" y="330" type="curve"/>
			<point x="76" y="330" type="line"/>
		</contour>
	</outline>
</glyph>
<glyph name="numero" format="2">
	<unicode hex="2116"/>
	<advance width="1053"/>
	<outline>
		<contour>
			<point x="683" y="593" type="curve" smooth="yes"/>
			<point x="683" y="510.273"/>
			<point x="751.725" y="442"/>
			<point x="835" y="442" type="curve" smooth="yes"/>
			<point x="918.773" y="442"/>
			<point x="988" y="510.775"/>
			<point x="988" y="594" type="curve" smooth="yes"/>
			<point x="988" y="675.5"/>
			<point x="918.5" y="745"/>
			<point x="837" y="745" type="curve" smooth="yes"/>
			<point x="751.947" y="745"/>
			<point x="683" y="676.948"/>
		</contour>
		<contour>
			<point x="836" y="505" type="curve" smooth="yes"/>
			<point x="788.326" y="505"/>
			<point x="750" y="544.663"/>
			<point x="750" y="594" type="curve" smooth="yes"/>
			<point x="750" y="643.643"/>
			<point x="786.614" y="682"/>
			<point x="834" y="682" type="curve" smooth="yes"/>
			<point x="881.949" y="682"/>
			<point x="921" y="642.052"/>
			<point x="921" y="593" type="curve" smooth="yes"/>
			<point x="921" y="543.653"/>
			<point x="883.665" y="505"/>
		</contour>
		<contour>
			<point x="683" y="316" type="line"/>
			<point x="988" y="316" type="line"/>
			<point x="988" y="383" type="line"/>
			<point x="683" y="383" type="line"/>
		</contour>
		<contour>
			<point x="76" y="0" type="line"/>
			<point x="150" y="0" type="line"/>
			<point x="150" y="640" type="line"/>
			<point x="548" y="0" type="line"/>
			<point x="622" y="0" type="line"/>
			<point x="622" y="739" type="line"/>
			<point x="548" y="739" type="line"/>
			<point x="548" y="136" type="line"/>
			<point x="176" y="739" type="line"/>
			<point x="76" y="739" type="line"/>
		</contour>
	</outline>
</glyph>
<glyph name="nine.fitted" format="2">
	<unicode hex="E009"/>
	<advance width="556"/>
	<outline>
		<contour>
			<point x="174" y="0" type="line"/>
			<point x="259" y="0" type="line"/>
			<point x="442" y="272" type="line" smooth="yes"/>
			<point x="512.923" y="377.415"/>
			<point x="530" y="420.691"/>
			<point x="530" y="495" type="curve" smooth="yes"/>
			<point x="530" y="642.073"/>
			<point x="420.928" y="752"/>
			<point x="275" y="752" type="curve" smooth="yes"/>
			<point x="130.771" y="752"/>
			<point x="26" y="641.759"/>
			<point x="26" y="490" type="curve" smooth="yes"/>
			<point x="26" y="347.966"/>
			<point x="130.031" y="236"/>
			<point x="262" y="236" type="curve" smooth="yes"/>
			<point x="293.762" y="236"/>
			<point x="315.773" y="241.375"/>
			<point x="348" y="257" type="curve"/>
		</contour>
		<contour>
			<point x="277" y="303" type="curve" smooth="yes"/>
			<point x="173.797" y="303"/>
			<point x="100" y="382.218"/>
			<point x="100" y="493" type="curve" smooth="yes"/>
			<point x="100" y="603.991"/>
			<point x="172.992" y="685"/>
			<point x="273" y="685" type="curve" smooth="yes"/>
			<point x="378.898" y="685"/>
			<point x="456" y="604.107"/>
			<point x="456" y="493" type="curve" smooth="yes"/>
			<point x="456" y="384.366"/>
			<point x="379.345" y="303"/>
		</contour>
	</outline>
	<anchor name="Anchor-0" x="278" y="805"/>
</glyph>
<glyph name="breve.cyruc" format="2">
	<unicode hex="E081"/>
	<advance width="482"/>
	<outline>
		<contour>
			<point x="74" y="931" type="line"/>
			<point x="88.935" y="842.325"/>
			<point x="146.241" y="796"/>
			<point x="241" y="796" type="curve" smooth="yes"/>
			<point x="335.759" y="796"/>
			<point x="393.065" y="842.325"/>
			<point x="408" y="931" type="curve"/>
			<point x="333" y="931" type="line"/>
			<point x="333" y="871.446"/>
			<point x="302.562" y="842"/>
			<point x="241" y="842" type="curve" smooth="yes"/>
			<point x="179.438" y="842"/>
			<point x="149" y="871.446"/>
			<point x="149" y="931" type="curve"/>
		</contour>
	</outline>
</glyph>
<glyph name="brevecomb.cyr" format="2">
	<unicode hex="E082"/>
	<outline>
		<contour>
			<point x="-479" y="746" type="line"/>
			<point x="-464.85" y="661.102"/>
			<point x="-412.115" y="616"/>
			<point x="-327" y="616" type="curve" smooth="yes"/>
			<point x="-241.885" y="616"/>
			<point x="-189.15" y="661.102"/>
			<point x="-175" y="746" type="curve"/>
			<point x="-249" y="746" type="line"/>
			<point x="-249" y="690.615"/>
			<point x="-275.571" y="662"/>
			<point x="-327" y="662" type="curve" smooth="yes"/>
			<point x="-378.429" y="662"/>
			<point x="-405" y="690.615"/>
			<point x="-405" y="746" type="curve"/>
		</contour>
	</outline>
	<anchor name="Anchor-1" x="-327" y="805"/>
	<anchor name="_Anchor-1" x="-327" y="623"/>
	<anchor name="_Anchor-0" x="-327" y="623"/>
</glyph>
<glyph name="i.dotless" format="2">
	<unicode hex="E090"/>
	<advance width="200"/>
	<outline>
		<contour>
			<point x="63" y="0" type="line"/>
			<point x="137" y="0" type="line"/>
			<point x="137" y="547" type="line"/>
			<point x="63" y="547" type="line"/>
		</contour>
	</outline>
	<anchor name="Anchor-0" x="100" y="623"/>
</glyph>
<glyph name="Yacyr.loclBGR" format="2">
	<advance width="607"/>
	<outline>
		<contour>
			<point x="49" y="0" type="line"/>
			<point x="141" y="0" type="line"/>
			<point x="336" y="309" type="line"/>
			<point x="402" y="309" type="line"/>
			<point x="402" y="375" type="line"/>
			<point x="323" y="375" type="line" smooth="yes"/>
			<point x="200.88" y="375"/>
			<point x="116" y="436.507"/>
			<point x="116" y="525" type="curve" smooth="yes"/>
			<point x="116" y="618.986"/>
			<point x="191.547" y="673"/>
			<point x="323" y="673" type="curve" smooth="yes"/>
			<point x="456" y="673" type="line"/>
			<point x="456" y="0" type="line"/>
			<point x="530" y="0" type="line"/>
			<point x="530" y="740" type="line"/>
			<point x="323" y="740" type="line" smooth="yes"/>
			<point x="160.766" y="740"/>
			<point x="42" y="646.171"/>
			<point x="42" y="518" type="curve" smooth="yes"/>
			<point x="42" y="406.144"/>
			<point x="129.368" y="321.701"/>
			<point x="251" y="316" type="curve"/>
		</contour>
	</outline>
</glyph>
<glyph name="becyr.loclBGR" format="2">
	<advance width="648"/>
	<outline>
		<contour>
			<point x="42" y="304" type="curve" smooth="yes"/>
			<point x="42" y="107.486"/>
			<point x="149.563" y="-13"/>
			<point x="325" y="-13" type="curve" smooth="yes"/>
			<point x="485.435" y="-13"/>
			<point x="606" y="102.416"/>
			<point x="606" y="256" type="curve" smooth="yes"/>
			<point x="606" y="409.841"/>
			<point x="487.157" y="530"/>
			<point x="335" y="530" type="curve" smooth="yes"/>
			<point x="250.323" y="530"/>
			<point x="169.773" y="494.83"/>
			<point x="122" y="437" type="curve"/>
			<point x="119" y="438" type="line"/>
			<point x="119" y="547.092"/>
			<point x="212.28" y="642.562"/>
			<point x="332" y="656" type="curve" smooth="yes"/>
			<point x="528" y="678" type="line"/>
			<point x="528" y="752" type="line"/>
			<point x="335" y="727" type="line" smooth="yes"/>
			<point x="120.4" y="699.202"/>
			<point x="42" y="586.018"/>
		</contour>
		<contour>
			<point x="123" y="267" type="curve" smooth="yes"/>
			<point x="123" y="384.214"/>
			<point x="203.977" y="462"/>
			<point x="326" y="462" type="curve" smooth="yes"/>
			<point x="442.716" y="462"/>
			<point x="531" y="373.285"/>
			<point x="531" y="256" type="curve" smooth="yes"/>
			<point x="531" y="141.42"/>
			<point x="442.43" y="55"/>
			<point x="325" y="55" type="curve" smooth="yes"/>
			<point x="208.33" y="55"/>
			<point x="123" y="144.554"/>
		</contour>
	</outline>
	<anchor name="Anchor-0" x="342" y="819"/>
</glyph>
<glyph name="gecyr.loclBGR" format="2">
	<advance width="388"/>
	<outline>
		<contour>
			<point x="297" y="161" type="line"/>
			<point x="293.002" y="93.041"/>
			<point x="256.038" y="55"/>
			<point x="194" y="55" type="curve" smooth="yes"/>
			<point x="140.368" y="55"/>
			<point x="102" y="94.62"/>
			<point x="102" y="150" type="curve" smooth="yes"/>
			<point x="102" y="195.178"/>
			<point x="129.839" y="222.386"/>
			<point x="210.503" y="256.042" type="curve" smooth="yes"/>
			<point x="310.825" y="297.901"/>
			<point x="350" y="345.069"/>
			<point x="350" y="424" type="curve" smooth="yes"/>
			<point x="350" y="501.449"/>
			<point x="285.717" y="560"/>
			<point x="200.685" y="560" type="curve" smooth="yes"/>
			<point x="107.869" y="560"/>
			<point x="44.028" y="500.831"/>
			<point x="41" y="412" type="curve"/>
			<point x="116" y="412" type="line"/>
			<point x="120" y="464"/>
			<point x="148" y="492"/>
			<point x="196" y="492" type="curve" smooth="yes"/>
			<point x="240" y="492"/>
			<point x="275" y="457"/>
			<point x="275" y="413" type="curve" smooth="yes"/>
			<point x="275" y="374.203"/>
			<point x="243.496" y="343.939"/>
			<point x="175.22" y="317.148" type="curve" smooth="yes"/>
			<point x="64.922" y="273.869"/>
			<point x="27" y="232.895"/>
			<point x="27" y="157" type="curve" smooth="yes"/>
			<point x="27" y="56.611"/>
			<point x="95.382" y="-13"/>
			<point x="194" y="-13" type="curve" smooth="yes"/>
			<point x="300.109" y="-13"/>
			<point x="369.001" y="55.109"/>
			<point x="370" y="161" type="curve"/>
		</contour>
	</outline>
	<anchor name="Anchor-0" x="203" y="623"/>
</glyph>
<glyph name="hardcyr.loclBGR" format="2">
	<advance width="734"/>
	<outline>
		<contour>
			<point x="12" y="480" type="line"/>
			<point x="185" y="480" type="line"/>
			<point x="185" y="232" type="line" smooth="yes"/>
			<point x="185" y="84.84"/>
			<point x="286.035" y="-13"/>
			<point x="438" y="-13" type="curve" smooth="yes"/>
			<point x="590.273" y="-13"/>
			<point x="692" y="85.122"/>
			<point x="692" y="232" type="curve" smooth="yes"/>
			<point x="692" y="378.193"/>
			<point x="584.771" y="485"/>
			<point x="438" y="485" type="curve" smooth="yes"/>
			<point x="368.621" y="485"/>
			<point x="292.256" y="447.884"/>
			<point x="259" y="398" type="curve"/>
			<point x="259" y="547" type="line"/>
			<point x="12" y="547" type="line"/>
		</contour>
		<contour>
			<point x="259" y="232" type="curve" smooth="yes"/>
			<point x="259" y="341.31"/>
			<point x="332.235" y="417"/>
			<point x="438" y="417" type="curve" smooth="yes"/>
			<point x="543.281" y="417"/>
			<point x="617" y="340.81"/>
			<point x="617" y="232" type="curve" smooth="yes"/>
			<point x="617" y="123.047"/>
			<point x="548.184" y="55"/>
			<point x="438" y="55" type="curve" smooth="yes"/>
			<point x="330.85" y="55"/>
			<point x="259" y="126.047"/>
		</contour>
	</outline>
	<anchor name="Anchor-0" x="222" y="623"/>
</glyph>
<glyph name="yacyr.loclBGR" format="2">
	<advance width="505"/>
	<outline>
		<contour>
			<point x="44" y="0" type="line"/>
			<point x="129" y="0" type="line"/>
			<point x="267" y="219" type="line"/>
			<point x="331" y="219" type="line"/>
			<point x="331" y="280" type="line"/>
			<point x="236" y="280" type="line" smooth="yes"/>
			<point x="154.444" y="280"/>
			<point x="108" y="319.188"/>
			<point x="108" y="388" type="curve" smooth="yes"/>
			<point x="108" y="439.25"/>
			<point x="164.696" y="480"/>
			<point x="236" y="480" type="curve" smooth="yes"/>
			<point x="383" y="480" type="line"/>
			<point x="383" y="0" type="line"/>
			<point x="457" y="0" type="line"/>
			<point x="457" y="547" type="line"/>
			<point x="236" y="547" type="line" smooth="yes"/>
			<point x="118.371" y="547"/>
			<point x="34" y="482.26"/>
			<point x="34" y="392" type="curve" smooth="yes"/>
			<point x="34" y="298.248"/>
			<point x="98.75" y="229.019"/>
			<point x="193" y="222" type="curve"/>
		</contour>
	</outline>
</glyph>
<glyph name="zecyr.loclBGR" format="2">
	<advance width="570"/>
	<outline>
		<contour>
			<point x="36" y="-17" type="line"/>
			<point x="55.407" y="-121.798"/>
			<point x="154.091" y="-192"/>
			<point x="282" y="-192" type="curve" smooth="yes"/>
			<point x="435.901" y="-192"/>
			<point x="534" y="-109.083"/>
			<point x="534" y="21" type="curve" smooth="yes"/>
			<point x="534" y="127.357"/>
			<point x="480.951" y="199.894"/>
			<point x="387" y="222" type="curve"/>
			<point x="452.408" y="241.907"/>
			<point x="487" y="295.525"/>
			<point x="487" y="377" type="curve" smooth="yes"/>
			<point x="487" y="483.913"/>
			<point x="393.866" y="560"/>
			<point x="263" y="560" type="curve" smooth="yes"/>
			<point x="155.385" y="560"/>
			<point x="73.193" y="504.2"/>
			<point x="45" y="412" type="curve"/>
			<point x="123" y="412" type="line"/>
			<point x="147.275" y="465.406"/>
			<point x="194.969" y="493"/>
			<point x="263" y="493" type="curve" smooth="yes"/>
			<point x="355.53" y="493"/>
			<point x="412" y="448.658"/>
			<point x="412" y="376" type="curve" smooth="yes"/>
			<point x="412" y="293.358"/>
			<point x="364.22" y="251"/>
			<point x="271" y="251" type="curve" smooth="yes"/>
			<point x="195" y="251" type="line"/>
			<point x="195" y="183" type="line"/>
			<point x="273" y="183" type="line" smooth="yes"/>
			<point x="382.389" y="183"/>
			<point x="459" y="116.274"/>
			<point x="459" y="21" type="curve" smooth="yes"/>
			<point x="459" y="-73.739"/>
			<point x="397.205" y="-125"/>
			<point x="283" y="-125" type="curve" smooth="yes"/>
			<point x="195.292" y="-125"/>
			<point x="130.127" y="-83.843"/>
			<point x="112" y="-17" type="curve"/>
		</contour>
	</outline>
</glyph>
